<?xml version="1.0" encoding="UTF-8" standalone="no"?>
<!-- Created with Inkscape (http://www.inkscape.org/) -->

<svg
   xmlns:dc="http://purl.org/dc/elements/1.1/"
   xmlns:cc="http://creativecommons.org/ns#"
   xmlns:rdf="http://www.w3.org/1999/02/22-rdf-syntax-ns#"
   xmlns:svg="http://www.w3.org/2000/svg"
   xmlns="http://www.w3.org/2000/svg"
   xmlns:sodipodi="http://sodipodi.sourceforge.net/DTD/sodipodi-0.dtd"
   xmlns:inkscape="http://www.inkscape.org/namespaces/inkscape"
   width="64px"
   height="64px"
   viewBox="0 0 64 64"
   version="1.1"
   id="SVGRoot"
   inkscape:version="0.92.5 (2060ec1f9f, 2020-04-08)"
   sodipodi:docname="house14.svg">
  <defs
     id="defs4518">
    <clipPath
       clipPathUnits="userSpaceOnUse"
       id="clipPath5245">
      <rect
         style="stroke:#ff0000;stroke-opacity:1"
         id="rect5247"
         width="261"
         height="814"
         x="-1026"
         y="-485"
         clip-path="none" />
    </clipPath>
    <clipPath
       clipPathUnits="userSpaceOnUse"
       id="clipPath5249">
      <rect
         style="stroke:#ff0000;stroke-opacity:1"
         id="rect5251"
         width="261"
         height="814"
         x="-1026"
         y="-485"
         clip-path="none" />
    </clipPath>
    <clipPath
       clipPathUnits="userSpaceOnUse"
       id="clipPath5253">
      <rect
         style="stroke:#ff0000;stroke-opacity:1"
         id="rect5255"
         width="261"
         height="814"
         x="-1026"
         y="-485"
         clip-path="none" />
    </clipPath>
    <clipPath
       clipPathUnits="userSpaceOnUse"
       id="clipPath5257">
      <rect
         style="stroke:#ff0000;stroke-opacity:1"
         id="rect5259"
         width="811"
         height="136"
         x="-862"
         y="170"
         clip-path="url(#clipPath5245)" />
    </clipPath>
    <clipPath
       clipPathUnits="userSpaceOnUse"
       id="clipPath5323">
      <rect
         style="stroke:#ff0000;stroke-opacity:1"
         id="rect5325"
         width="986"
         height="193"
         x="-460"
         y="-509" />
    </clipPath>
    <clipPath
       clipPathUnits="userSpaceOnUse"
       id="clipPath5327">
      <rect
         style="stroke:#ff0000;stroke-opacity:1"
         id="rect5329"
         width="986"
         height="193"
         x="-460"
         y="-509" />
    </clipPath>
    <clipPath
       clipPathUnits="userSpaceOnUse"
       id="clipPath5331">
      <rect
         style="stroke:#ff0000;stroke-opacity:1"
         id="rect5333"
         width="986"
         height="193"
         x="-460"
         y="-509" />
    </clipPath>
  </defs>
  <sodipodi:namedview
     id="base"
     pagecolor="#ffffff"
     bordercolor="#666666"
     borderopacity="1.0"
     inkscape:pageopacity="0.0"
     inkscape:pageshadow="2"
     inkscape:zoom="4"
     inkscape:cx="-11.950345"
     inkscape:cy="57.003878"
     inkscape:document-units="px"
     inkscape:current-layer="layer1"
     showgrid="false"
     inkscape:window-width="2560"
     inkscape:window-height="1373"
     inkscape:window-x="1920"
     inkscape:window-y="0"
     inkscape:window-maximized="1"
     inkscape:grid-bbox="true" />
  <metadata
     id="metadata4521">
    <rdf:RDF>
      <cc:Work
         rdf:about="">
        <dc:format>image/svg+xml</dc:format>
        <dc:type
           rdf:resource="http://purl.org/dc/dcmitype/StillImage" />
        <dc:title></dc:title>
      </cc:Work>
    </rdf:RDF>
  </metadata>
  <g
     inkscape:label="Layer 1"
     inkscape:groupmode="layer"
     id="layer1">
    <rect
       style="stroke:#ff0000;stroke-opacity:1"
       id="rect5229"
       width="918"
       height="146"
       x="-998"
       y="-428"
       clip-path="url(#clipPath5257)" />
    <rect
       style="stroke:#ff0000;stroke-opacity:1"
       id="rect5231"
       width="286"
       height="747"
       x="-337"
       y="-441"
       clip-path="url(#clipPath5249)" />
    <rect
       style="stroke:#ff0000;stroke-opacity:1"
       id="rect5317"
       width="970"
       height="183"
       x="-398"
       y="144"
       clip-path="url(#clipPath5327)" />
    <g
       id="g5560"
       transform="matrix(0.15450857,0,0,0.14453077,77.555027,26.764746)">
      <path
         style="fill:#ceca9d;stroke-width:1.33333337"
         d="m -301.36463,256.82736 c -1.4465,-0.98872 -4.43001,-2.14948 -6.63001,-2.57947 -4.41501,-0.86291 -13.12733,-4.81301 -21.33333,-9.67237 -2.93334,-1.73704 -8.20728,-4.4707 -11.71988,-6.07479 -7.14118,-3.26115 -8.99231,-5.68165 -8.07328,-10.55655 0.54876,-2.9109 -0.39834,-3.89313 -7.70016,-7.98581 -15.78406,-8.84697 -22.50102,-12.69844 -39.38712,-22.58429 -15.34159,-8.98164 -17.578,-9.90348 -23.69663,-9.76764 -6.91276,0.15348 -6.81098,0.19465 -33.29832,-13.47279 -4.99229,-2.57603 -8.82342,-5.67051 -10.46504,-8.45283 -1.4243,-2.41401 -3.08752,-4.38912 -3.69604,-4.38912 -0.6085,0 -1.98061,-0.87422 -3.04912,-1.94272 -2.14204,-2.14204 -2.10668,-8.82982 0.45502,-86.057277 1.68124,-50.684693 1.75308,-70.2171997 0.27693,-75.2963597 -0.92929,-3.19752 -3.83941,-5.52832 -15.06573,-12.0666003 -8.69956,-5.06668 -13.8568,-8.8796 -13.76146,-10.174266 0.0839,-1.138867 17.31456,-27.5818 38.29042,-58.762054 l 38.13789,-56.691403 34.37625,-20.38198 c 18.90695,-11.21009 34.78656,-20.59805 35.28803,-20.86215 4.21072,-2.21752 68.32082,18.07693 86.42157,27.35729 5.5,2.81988 44.32197,24.9966 86.27105,49.2816 41.94908,24.285003 79.32726,45.703243 83.062636,47.59611 3.735387,1.892853 7.082107,4.198613 7.437187,5.123907 0.87616,2.283253 -4.509333,14.19256 -6.818733,15.078773 -1.019147,0.39108 -4.93561,-0.31284 -8.70327,-1.564253 -11.76334,-3.907147 -11.00114,-11.55596 -9.51917,95.5268 1.19049,86.022383 1.11705,94.087453 -0.88221,96.871823 -3.0433,4.2384 -175.91689,104.2961 -180.19644,104.2961 -1.86506,0 -4.57454,-0.80896 -6.02104,-1.79768 z"
         id="path5578"
         inkscape:connector-curvature="0" />
      <path
         style="fill:#6abbda;stroke-width:1.33333337"
         d="m -324.66131,244.62504 c -1.72233,-1.83334 -4.00782,-3.33334 -5.07889,-3.33334 -1.20656,0 -0.61633,-1.04701 1.55147,-2.75221 2.30793,-1.81541 4.9787,-2.60963 7.84648,-2.33333 4.08398,0.39348 4.37248,0.76248 4.75761,6.08554 0.37595,5.19618 0.14617,5.66667 -2.76759,5.66667 -1.74766,0 -4.58674,-1.5 -6.30908,-3.33333 z m -20.18562,-9.91316 c -2.66094,-2.18088 -2.90254,-2.98274 -1.56228,-5.18516 1.47097,-2.41726 -0.90366,-4.03587 -32.89208,-22.42018 -18.96264,-10.89816 -36.32608,-20.83693 -38.58543,-22.08616 l -4.10792,-2.27132 v -56.72868 c 0,-53.35681 0.14011,-56.728677 2.35716,-56.728677 1.29643,0 4.44643,1.412374 7,3.138614 2.55356,1.72624 15.14284,9.151146 27.97617,16.4998 40.03434,22.924573 42.67403,24.550653 44.06095,27.142133 0.85631,1.60003 1.30621,22.61225 1.22781,57.34383 -0.068,30.15013 0.22412,55.16629 0.64931,55.59146 0.42517,0.42518 1.48304,0.0631 2.35083,-0.80473 2.28352,-2.28352 9.93581,-1.98601 10.85994,0.42223 1.62052,4.223 -0.60558,6.33456 -5.92588,5.62096 -3.57196,-0.4791 -5.25268,-0.13336 -5.75841,1.18457 -0.99644,2.59668 -3.94271,2.31989 -7.65017,-0.71869 z m 76.23253,-11.99919 c -1.59334,-2.97719 -1.93686,-111.92233 -0.35983,-114.11845 1.3694,-1.90698 6.08287,-4.8321 28.97959,-17.98439 11,-6.3186 37.28864,-21.500067 58.41918,-33.736587 21.13056,-12.23652 39.02372,-22.248226 39.76257,-22.248226 1.63651,0 12.92446,6.359013 16.15158,9.09892 4.49284,3.81452 2.91929,7.892693 -5,12.958613 l -7.33334,4.69108 V 105.036 c 0,35.67268 -0.34837,44.15973 -1.90382,46.38044 -1.0471,1.49494 -10.7971,7.86586 -21.66667,14.15758 -90.18998,52.20546 -103.3964,59.71768 -104.98305,59.71768 -0.37728,0 -1.30708,-1.16056 -2.06621,-2.57901 z m 16.69142,-26.18241 c -1.84196,-1.35944 -3.00273,-1.50082 -4,-0.48715 -0.98826,1.00451 -0.63529,1.99617 1.19,3.34333 1.84196,1.35944 3.00274,1.50082 4,0.48715 0.98827,-1.00451 0.6353,-1.99617 -1.19,-3.34333 z m 25.92834,-43.73991 c 1.50462,-0.64656 1.88698,-2.58985 1.54374,-7.84571 -0.25093,-3.84246 -0.85093,-7.39082 -1.33333,-7.88526 -0.48239,-0.49444 -3.57708,0.40556 -6.87708,2 -5.01289,2.42204 -6.30263,3.85556 -7.83947,8.71348 -1.39013,4.39416 -1.45782,6.05038 -0.27713,6.78009 1.57052,0.97064 11.05397,-0.16007 14.78327,-1.7626 z m -1.24568,-23.54557 c 2.68784,-1.4385 3.6154,-6.61976 1.18508,-6.61976 -0.76667,0 -2.86243,-1.46848 -4.65724,-3.2633 -3.11402,-3.11401 -3.32472,-3.14853 -4.60607,-0.75432 -1.51735,2.83518 -1.80065,9.78194 -0.45387,11.12872 1.3224,1.32242 5.60375,1.07586 8.5321,-0.49134 z m 3.91234,-18.69846 c 0,-0.69005 -0.9,-1.25464 -2,-1.25464 -2.06188,0 -2.64893,1.57328 -1.14736,3.07487 1.06524,1.06524 3.14736,-0.13892 3.14736,-1.82023 z m -213.43408,69.51639 c -4.45356,-4.45356 -4.05068,-7.68091 1.12086,-8.97888 4.46003,-1.11939 7.54447,0.95172 8.07624,5.42296 0.43048,3.61961 -1.64134,7.45156 -4.02884,7.45156 -0.69994,0 -3.02566,-1.75304 -5.16826,-3.89564 z m -21.29702,-10.55509 c -3.95258,-3.20062 -2.2837,-5.84102 3.38327,-5.35278 2.41057,0.20768 5.31369,-0.39492 6.45139,-1.33912 3.24584,-2.6938 9.48437,-1.41049 9.97736,2.05242 0.62353,4.37981 -4.28476,6.58522 -8.50366,3.8209 -3.06777,-2.01009 -3.24392,-1.97904 -3.24392,0.57191 0,3.44333 -3.96688,3.56467 -8.06444,0.24667 z m 8.75475,-80.98219 c -5.85367,-3.3432 -11.10796,-6.788467 -11.67623,-7.656147 -0.56825,-0.86768 -0.87889,-5.77124 -0.6903,-10.8968 0.2767,-7.5204 0.77773,-9.402133 2.59573,-9.74892 1.23905,-0.23636 7.11225,2.373174 13.05156,5.79896 l 10.79872,6.228694 -0.38489,10.746253 c -0.2117,5.910427 -0.9849,10.9398 -1.71823,11.176373 -0.73333,0.236587 -6.12269,-2.3052 -11.97636,-5.648413 z m 129.82284,-3.000053 c -2.90172,-2.220187 -34.44047,-20.531574 -115.84648,-67.260414 -16.5,-9.4713597 -31.58079,-19.00942633 -33.51285,-21.195693 -1.93207,-2.1862667 -9.43207,-7.40392 -16.66667,-11.594787 -8.37312,-4.850386 -13.09669,-8.387853 -12.99665,-9.733133 0.0864,-1.16236 17.33926,-27.625133 38.33961,-58.80616 l 38.18245,-56.69277 34.32705,-20.35269 c 18.87988,-11.19398 34.77051,-20.58926 35.31252,-20.87841 2.13732,-1.1402 29.72263,6.56893 55.57043,15.52998 l 27.22256,9.43766 56.11077,32.421 c 30.86092,17.83156 71.01617,41.022203 89.23386,51.534777 18.21771,10.51256 33.432416,19.919813 33.81047,20.905 1.073919,2.798573 -0.665667,7.994213 -3.94308,11.77684 l -2.99048,3.451466 -7.8754,-2.72152 c -4.33147,-1.496826 -9.28907,-2.721506 -11.01688,-2.721506 -1.72781,0 -7.41469,-1.184174 -12.63752,-2.631494 l -9.49605,-2.63148 -8.8204,4.857334 c -4.85123,2.671546 -9.05027,5.03556 -9.33119,5.253373 -0.28093,0.217827 1.403,2.575707 3.74207,5.23976 5.78046,6.583587 5.04414,9.50604 -3.89796,15.47088 -7.02755,4.68772 -7.36954,5.188107 -8.20147,12 -0.47748,3.90956 -0.92748,14.458293 -1,23.441627 -0.11067,13.711026 -0.50941,16.71088 -2.48343,18.684893 -3.86542,3.865427 -68.00107,40.315107 -70.93711,40.315107 -2.49568,0 -2.71132,-0.831507 -2.71132,-10.45468 0,-17.634547 -1.68904,-50.63016 -2.67327,-52.22268 -1.36119,-2.20244 -19.76771,9.4216 -24.66007,15.573266 -2.2,2.766294 -8.2,10.822427 -13.33333,17.90252 -26.64329,36.747467 -28.00254,38.444987 -30.82018,38.48992 -1.55111,0.0248 -4.25111,-1.049853 -6,-2.387986 z m 96.03565,-41.46596 c 1.58401,-1.002734 1.62717,-2.741774 0.27245,-10.979587 -0.88532,-5.38348 -2.48228,-10.66672 -3.5488,-11.740533 -1.69752,-1.70912 -1.93912,-0.338587 -1.93912,11 0,13.215 0.62725,14.62456 5.21547,11.72012 z"
         id="path5576"
         inkscape:connector-curvature="0" />
      <path
         style="fill:#a0a494;stroke-width:1.33333337"
         d="m -324.66131,244.62504 c -1.72233,-1.83334 -4.00782,-3.33334 -5.07889,-3.33334 -1.20656,0 -0.61633,-1.04701 1.55147,-2.75221 2.30793,-1.81541 4.9787,-2.60963 7.84648,-2.33333 4.08398,0.39348 4.37248,0.76248 4.75761,6.08554 0.37595,5.19618 0.14617,5.66667 -2.76759,5.66667 -1.74766,0 -4.58674,-1.5 -6.30908,-3.33333 z m -20.07462,-9.79232 c -2.2527,-1.82412 -2.75255,-3.11504 -1.93604,-5 0.60537,-1.39756 1.00544,-2.99102 0.88901,-3.54102 -0.43675,-2.06322 5.04301,-0.90453 6.30569,1.33334 1.0545,1.86888 1.65156,2.00158 2.99959,0.66666 2.37677,-2.35365 10.02331,-2.12121 10.96521,0.33334 1.62052,4.223 -0.60558,6.33456 -5.92588,5.62096 -3.57196,-0.4791 -5.25268,-0.13336 -5.75841,1.18457 -0.98349,2.56295 -3.92368,2.3298 -7.53917,-0.59785 z m 76.12153,-12.12003 c -1.59334,-2.97719 -1.93686,-111.92233 -0.35983,-114.11845 1.3694,-1.90698 6.08287,-4.8321 28.97959,-17.98439 11,-6.3186 37.28864,-21.500067 58.41918,-33.736587 21.13056,-12.23652 39.02372,-22.248226 39.76257,-22.248226 1.63651,0 12.92446,6.359013 16.15158,9.09892 4.49284,3.81452 2.91929,7.892693 -5,12.958613 l -7.33334,4.69108 V 105.036 c 0,35.67268 -0.34837,44.15973 -1.90382,46.38044 -1.0471,1.49494 -10.7971,7.86586 -21.66667,14.15758 -90.18998,52.20546 -103.3964,59.71768 -104.98305,59.71768 -0.37728,0 -1.30708,-1.16056 -2.06621,-2.57901 z m 17.88301,-22.38581 c 1.17876,-3.07182 -2.97224,-6.26988 -5.45917,-4.20591 -1.26539,1.05019 -1.37468,2.14839 -0.39582,3.97741 1.68711,3.15239 4.68804,3.26951 5.85499,0.2285 z m 24.73675,-47.53651 c 1.50462,-0.64656 1.88698,-2.58985 1.54374,-7.84571 -0.25093,-3.84246 -0.85093,-7.39082 -1.33333,-7.88526 -0.48239,-0.49444 -3.57708,0.40556 -6.87708,2 -5.01289,2.42204 -6.30263,3.85556 -7.83947,8.71348 -1.39013,4.39416 -1.45782,6.05038 -0.27713,6.78009 1.57052,0.97064 11.05397,-0.16007 14.78327,-1.7626 z m -1.04596,-23.832 c 2.30358,-1.80217 4.14798,-19.66667 2.03046,-19.66667 -0.62804,0 -0.77106,-0.6 -0.31784,-1.33333 1.19887,-1.93981 -0.29768,-1.63657 -4.0469,0.82001 -1.80754,1.18435 -3.30551,3.13435 -3.32883,4.33334 -0.0233,1.19898 -0.92333,3.34466 -2,4.76816 -1.99441,2.63685 -2.68019,10.2448 -1.06871,11.85626 1.45547,1.45547 6.44535,1.011 8.73182,-0.77777 z m -13.1636,-33.565013 c 11.47152,-6.544094 20.57749,-12.178174 20.23549,-12.52016 -0.65059,-0.6506 -40.37281,21.755453 -42.6926,24.081543 -2.42476,2.43135 1.19624,0.56719 22.45711,-11.561383 z m 35.54289,-20.76832 c 1.1,-0.71088 1.4,-1.292494 0.66667,-1.292494 -0.73334,0 -2.23334,0.581614 -3.33334,1.292494 -1.1,0.71088 -1.4,1.292493 -0.66666,1.292493 0.73333,0 2.23333,-0.581613 3.33333,-1.292493 z m 16.72239,-10.388734 c -0.73751,-0.737506 -14.05268,6.828947 -14.05436,7.986494 -7.5e-4,0.512106 3.28185,-0.95468 7.29466,-3.25952 4.01282,-2.304854 7.05468,-4.431987 6.7597,-4.726974 z m 23.27761,-13.260853 c 1.1,-1.112627 -1,-0.330013 -4.66667,1.739133 -9.82514,5.54448 -16.66666,9.865387 -16.66666,10.5262 0,0.949934 19.15729,-10.06432 21.33333,-12.265333 z m 10.93077,-5.839467 c 10.31837,-6.083933 12.3022,-6.6326 15.60848,-4.316786 1.57452,1.10284 3.59732,1.742173 4.49509,1.420746 0.89778,-0.321426 -0.51328,-1.627613 -3.13566,-2.90264 -4.73327,-2.301333 -4.82552,-2.28888 -12.66667,1.710254 -7.93807,4.048573 -14.04347,8.122786 -12.29069,8.201746 0.51773,0.02333 4.11298,-1.82768 7.98945,-4.11332 z M -357.32797,215.88301 c -7.33334,-4.33389 -13.96676,-7.88989 -14.74096,-7.90223 -0.7742,-0.012 -3.4742,-1.54968 -6,-3.41633 -8.42444,-6.22596 -32.71784,-19.23595 -36.74161,-19.67645 -2.18426,-0.23912 -4.69423,-0.88152 -5.57774,-1.42755 -1.21209,-0.74912 -1.60636,-14.88161 -1.60636,-57.58077 0,-55.699083 0.0419,-56.587977 2.66667,-56.587977 1.46667,0 3.81667,1.15 5.22223,2.55556 1.40554,1.405547 3.00174,2.155547 3.54709,1.666667 0.54534,-0.488893 0.6095,-0.21908 0.14256,0.599573 -1.19654,2.097774 1.83561,4.382214 17.42354,13.127054 7.93347,4.45068 14.53612,7.335333 15.73592,6.874933 1.35012,-0.518093 1.73602,-0.257453 1.11251,0.7514 -0.64333,1.04096 -0.20855,1.258347 1.33333,0.666667 1.25839,-0.48288 1.96343,-0.352827 1.56675,0.289013 -1.00521,1.626453 1.67688,3.632787 17.1144,12.80247 l 13.46833,8 0.34904,52.58429 c 0.19198,28.92136 -0.108,53.02737 -0.66666,53.56889 -0.55864,0.54154 -7.01571,-2.56132 -14.34904,-6.89521 z m -79.43409,-35.82028 c -4.45356,-4.45356 -4.05068,-7.68091 1.12086,-8.97888 4.46003,-1.11939 7.54447,0.95172 8.07624,5.42296 0.43048,3.61961 -1.64134,7.45156 -4.02884,7.45156 -0.69994,0 -3.02566,-1.75304 -5.16826,-3.89564 z m -21.29702,-10.55509 c -3.95258,-3.20062 -2.2837,-5.84102 3.38327,-5.35278 2.41057,0.20768 5.31369,-0.39492 6.45139,-1.33912 3.24584,-2.6938 9.48437,-1.41049 9.97736,2.05242 0.62353,4.37981 -4.28476,6.58522 -8.50366,3.8209 -3.06777,-2.01009 -3.24392,-1.97904 -3.24392,0.57191 0,3.44333 -3.96688,3.56467 -8.06444,0.24667 z m 15.01378,-77.335577 c -2.4112,-1.284013 -4.0612,-2.757373 -3.66667,-3.274133 0.39453,-0.51676 0.34304,-0.665267 -0.1144,-0.330027 -1.08291,0.793587 -10.27283,-3.904586 -13.02913,-6.660906 -1.54819,-1.54816 -2.13914,-4.67004 -2.13914,-11.30064 0,-10.812907 0.0619,-10.828414 13.57639,-3.39992 4.84723,2.664373 9.62549,4.673533 10.61837,4.464786 1.40518,-0.295413 1.80524,2.107507 1.80524,10.842707 0,6.33576 -0.58057,11.38996 -1.33333,11.607467 -0.73333,0.21188 -3.30613,-0.665307 -5.71733,-1.949334 z m -1.32186,-9.213693 c 0.90814,-3.501467 -0.22514,-5.666667 -2.96598,-5.666667 -1.62484,0 -2.7386,-1.31576 -3.30792,-3.907866 -0.97087,-4.42028 -3.88259,-7.41328 -5.96184,-6.128227 -1.91315,1.182387 -1.75762,10.470213 0.20826,12.436093 0.88,0.88 2.60654,1.6 3.83675,1.6 1.2302,0 2.98367,0.9 3.89659,2 2.18556,2.63344 3.55221,2.527347 4.29414,-0.333333 z m 126.61969,4.08824 c -0.96406,-0.38568 -2.24248,-1.989093 -2.84092,-3.56312 -0.74449,-1.958147 -24.06462,-16.121413 -73.84729,-44.850493 -43.54721,-25.130667 -73.24884,-43.0631337 -73.97878,-44.664947 -0.67078,-1.4719867 -7.04,-5.89128 -14.15383,-9.820653 -8.31483,-4.592747 -12.6962,-7.7646 -12.26775,-8.88112 1.22652,-3.196267 73.1049,-110.619937 75.05554,-112.172027 1.52209,-1.21109 4.48518,-0.0785 14.18821,5.42307 15.68638,8.89414 61.47677,35.317117 85.59765,49.393423 54.14882,31.599814 75.08521,43.38096 77.09272,43.38096 2.8244,0 70.18545,-38.87388 70.46761,-40.666666 0.17951,-1.14056 -65.91716,-40.201027 -135.89366,-80.307667 -11.18334,-6.40966 -20.33334,-12.06421 -20.33334,-12.56566 0,-0.50145 2.0683,-0.34064 4.59622,0.35735 7.30634,2.01738 45.82903,15.61773 52.12366,18.40215 3.14625,1.39173 39.22137,21.87401 80.16695,45.51619 40.94558,23.642157 79.99298,45.950023 86.77201,49.573023 6.779023,3.623 12.69665,7.1878 13.150276,7.92176 1.36904,2.21516 -3.645626,11.76952 -6.17732,11.76952 -1.263093,0 -4.621956,-0.819226 -7.464156,-1.820493 -2.8422,-1.00128 -6.96764,-1.556373 -9.16764,-1.233533 -2.2,0.322826 -8.43082,-0.64212 -13.84626,-2.144334 l -9.84626,-2.73128 -8.8204,4.857334 c -4.85123,2.671546 -9.05027,5.03556 -9.33119,5.253373 -0.28093,0.217827 1.403,2.575707 3.74207,5.23976 5.78046,6.583587 5.04414,9.50604 -3.89796,15.47088 -7.02755,4.68772 -7.36954,5.188107 -8.20147,12 -0.47748,3.90956 -0.92748,14.458293 -1,23.441627 -0.11067,13.711026 -0.50941,16.71088 -2.48343,18.684893 -3.86542,3.865427 -68.00107,40.315107 -70.93711,40.315107 -2.49568,0 -2.71132,-0.831507 -2.71132,-10.45468 0,-17.634547 -1.68904,-50.63016 -2.67327,-52.22268 -1.36119,-2.20244 -19.76771,9.4216 -24.66007,15.573266 -2.2,2.766294 -8.2,10.822427 -13.33333,17.90252 -26.4925,36.539507 -28.01456,38.444614 -30.66666,38.384667 -1.46667,-0.0332 -3.45544,-0.37584 -4.4195,-0.76152 z m 95.90463,-38.000427 c 5.58261,-3.137613 6.63821,-5.087813 2.75392,-5.087813 -1.98494,0 -2.7048,-1.762747 -3.94764,-9.666667 -1.69362,-10.77072 -4.11243,-16.97392 -6.62475,-16.9896 -1.23175,-0.008 -1.66192,3.72996 -1.64847,14.322934 0.0192,15.136733 0.77464,20.333333 2.95578,20.333333 0.73128,0 3.6613,-1.31048 6.51116,-2.912187 z m 60.51486,-81.087813 c -0.45323,-0.733333 -1.42404,-1.333333 -2.15737,-1.333333 -0.73334,0 -0.96252,0.6 -0.5093,1.333333 0.45323,0.733333 1.42404,1.333333 2.15738,1.333333 0.73333,0 0.96252,-0.6 0.50929,-1.333333 z"
         id="path5574"
         inkscape:connector-curvature="0" />
      <path
         style="fill:#52add1;stroke-width:1.33333337"
         d="m -323.90503,244.0574 c -3.30818,-3.65552 -1.79746,-6.7657 3.28635,-6.7657 3.85024,0 4.09837,0.28922 3.70852,4.32242 -0.49988,5.17138 -3.55896,6.2399 -6.99487,2.44328 z m -20.49956,-10.20262 c -1.6324,-1.14338 -2.62254,-2.63781 -2.20033,-3.32097 1.24116,-2.00825 5.95793,-1.42289 6.82917,0.84752 1.29856,3.38399 -1.32633,4.78661 -4.62884,2.47345 z m 9.55866,-2.56341 c -1.12926,-2.94279 1.18701,-4.98973 5.03084,-4.44588 2.11616,0.2994 3.15378,1.32357 3.15378,3.11288 0,3.48381 -6.9264,4.61189 -8.18462,1.333 z m -22.48204,-15.40836 c -7.33334,-4.33389 -13.96676,-7.88989 -14.74096,-7.90223 -0.7742,-0.012 -3.4742,-1.54968 -6,-3.41633 -7.17414,-5.30195 -32.57627,-19.27275 -35.04228,-19.27275 -1.21921,0 -3.41676,-1.2 -4.88343,-2.66666 -2.5753,-2.57531 -2.66666,-4.44444 -2.66666,-54.55762 0,-28.540023 0.36418,-52.840023 0.80932,-53.999997 1.19496,-3.114013 4.96358,-2.565626 8.54151,1.24292 3.1583,3.36184 30.34774,19.314694 32.91926,19.314694 0.75365,0 3.06597,1.35 5.13849,3 2.07252,1.65 9.80343,6.600003 17.17981,11.000003 l 13.4116,8 0.34904,52.58429 c 0.19198,28.92136 -0.108,53.02737 -0.66666,53.56889 -0.55864,0.54154 -7.01571,-2.56132 -14.34904,-6.89521 z m 90.60975,5.07452 c -0.35194,-0.91713 -0.4831,-26.55904 -0.29149,-56.982 0.32965,-52.33809 0.47936,-55.33969 2.78232,-55.78296 3.75412,-0.72259 44.08472,-24.15912 45.29471,-26.321227 0.5888,-1.052133 2.24073,-1.912973 3.67096,-1.912973 1.43022,0 2.60041,-0.553467 2.60041,-1.229933 0,-0.676454 2.1,-1.922987 4.66667,-2.770067 2.56666,-0.84708 4.66666,-2.093613 4.66666,-2.770067 0,-0.676466 0.45,-1.0942 1,-0.928306 1.49384,0.450586 15,-7.215094 15,-8.513534 0,-0.616786 0.45,-0.977613 1,-0.801853 0.89211,0.285093 12.71204,-6.09264 25.66667,-13.84908 2.56666,-1.53676 7.91262,-4.527427 11.8799,-6.645933 6.66871,-3.561054 7.44522,-3.699814 10.28642,-1.838187 1.69025,1.107493 4.1743,2.013627 5.5201,2.013627 1.3458,0 3.16691,0.72 4.04691,1.6 3.01015,3.010146 1.62961,6.129253 -4.23371,9.565386 -3.23341,1.894907 -6.19686,4.774374 -6.64845,6.460027 -0.44812,1.672693 -0.82296,22.276573 -0.83297,45.78641 -0.0137,32.15096 -0.43128,43.27172 -1.68487,44.86968 -1.43463,1.82875 -121.42177,71.7185 -123.12674,71.7185 -0.34299,0 -0.91156,-0.75039 -1.2635,-1.66751 z m 35.95804,-30.01504 c 18.20303,-10.65665 23.9103,-15.0894 19.20998,-14.92008 -0.97778,0.0352 -3.87778,1.20436 -6.44444,2.59808 -2.56667,1.39372 -6.16667,3.28092 -8,4.19377 -1.83334,0.91286 -4.23334,2.3828 -5.33334,3.26654 -1.1,0.88373 -5.5138,3.49492 -9.80845,5.80262 -7.38349,3.9675 -7.98419,4.0807 -11.03765,2.07999 -1.77607,-1.16373 -3.81227,-1.75552 -4.5249,-1.31509 -3.07358,1.89957 -0.0279,9.98709 3.75124,9.96084 1.25754,-0.009 11.24194,-5.25874 22.18756,-11.66667 z m -9.90113,-12.20624 c 0,-0.67217 -1.59736,-2.38573 -3.54971,-3.80791 -4.84876,-3.53208 -3.45578,-7.29373 2.54795,-6.88062 11.07537,0.76209 13.95307,0.0617 15.43188,-3.75602 0.78117,-2.01666 1.61421,-4.86666 1.85123,-6.33333 0.35029,-2.16773 1.48332,-2.67557 6.05572,-2.71427 5.93974,-0.0503 9.26266,-2.03064 7.68649,-4.58094 -0.56507,-0.91431 -2.46179,-1.19424 -4.72445,-0.69727 -2.85631,0.62735 -4.08556,0.23904 -5.02898,-1.58861 -0.69353,-1.34355 -0.99593,-11.50954 -0.68021,-22.86722 l 0.5684,-20.4483 -3.07916,0.96082 c -4.32752,1.35038 -14.087,8.51679 -15.12508,11.10639 -0.47684,1.18951 -1.66188,7.26273 -2.63343,13.49607 -4.60465,29.54277 -4.90598,30.66476 -8.86373,33.00266 -3.6774,2.1723 -6.45692,7.62816 -6.45692,12.67418 0,2.1031 0.63377,2.45318 3.25161,1.79614 1.7884,-0.44886 3.62382,-0.2139 4.0787,0.52212 1.03521,1.675 8.66969,1.77724 8.66969,0.11614 z m 2.66667,-17.96856 c 0,-2.34907 4.03302,-3.97629 5.70678,-2.30253 0.69347,0.69346 0.85774,1.91313 0.36502,2.71037 -1.29871,2.10135 -6.0718,1.78073 -6.0718,-0.40784 z m 60.08721,-0.30743 c 17.85184,-10.13018 23.8138,-14.37865 22.30089,-15.89156 -0.81072,-0.81072 -7.29153,2.07438 -15.72144,6.99882 -24.22872,14.15349 -23.71586,13.9396 -28.04937,11.69865 -4.26305,-2.20451 -6.61729,-1.70823 -6.61729,1.39497 0,1.82524 5.89124,5.80294 8.75388,5.91051 0.78129,0.0293 9.48129,-4.52076 19.33333,-10.11139 z m -38.75388,0.83144 c 0,-0.73333 -0.6,-1.33333 -1.33333,-1.33333 -0.73334,0 -1.33334,0.6 -1.33334,1.33333 0,0.73334 0.6,1.33334 1.33334,1.33334 0.73333,0 1.33333,-0.6 1.33333,-1.33334 z m 30.66667,-13.3026 c 0,-0.71642 -1.5,-2.28542 -3.33334,-3.48668 -1.83333,-1.20124 -3.33333,-2.99396 -3.33333,-3.98382 0,-2.50288 4.39559,-4.6305 6.66667,-3.2269 1.06597,0.6588 2.88677,0.59579 4.27657,-0.14801 1.33115,-0.71241 3.16348,-1.19945 4.07184,-1.08233 4.00967,0.51702 5.00583,-0.43083 5.82289,-5.54044 0.66194,-4.1395 1.65924,-5.73772 4.17793,-6.69534 2.1793,-0.82856 3.88748,-0.77732 5.00502,0.15015 1.227,1.01832 2.30676,0.79781 3.9013,-0.79673 2.80607,-2.80607 1.94822,-3.60406 -4.2601,-3.9629 -6.62661,-0.38301 -9.66212,0.50675 -9.66212,2.83212 0,1.05058 -0.9,1.91015 -2,1.91015 -1.1,0 -2,1.12653 -2,2.50341 0,1.37687 -0.93011,3.27532 -2.06692,4.21879 -1.70493,1.41497 -2.44328,1.33903 -4.21592,-0.43361 -1.97644,-1.97644 -1.86401,-2.27886 1.40025,-3.76615 4.00967,-1.82693 4.54255,-3.55831 1.45931,-4.74145 -2.88535,-1.10722 -8.64137,2.21546 -9.99201,5.76792 -0.61454,1.61636 -2.94751,4.29193 -5.18436,5.9457 -2.23686,1.65379 -4.06702,3.79404 -4.06702,4.75614 0,0.96209 -1.22188,2.97113 -2.71529,4.46454 -3.19844,3.19844 -2.19377,5.79304 1.86075,4.80554 1.57,-0.38239 4.95454,-0.19243 7.52121,0.42214 6.47688,1.55084 6.66667,1.55334 6.66667,0.0877 z m 23.99999,-18.6974 c 0,-0.73333 -0.26458,-1.33333 -0.58797,-1.33333 -0.32339,0 -0.9588,0.6 -1.41203,1.33333 -0.45322,0.73334 -0.18864,1.33334 0.58798,1.33334 0.77661,0 1.41202,-0.6 1.41202,-1.33334 z m -274.72241,49.22915 c -2.06058,-3.85023 -0.65987,-6.56248 3.38909,-6.56248 1.87936,0 3.7444,0.85312 4.14452,1.89581 0.97285,2.53522 -1.75893,7.43752 -4.14452,7.43752 -1.0484,0 -2.57349,-1.24688 -3.38909,-2.77085 z m -21.86126,-10.00331 c -2.46198,-2.46198 -1.61908,-4.55917 1.83244,-4.55917 2.93847,0 5.97774,3.34883 4.78734,5.27493 -1.25082,2.02386 -4.19892,1.7051 -6.61978,-0.71576 z m 11.96623,-1.3671 c -2.70888,-2.70888 -0.33233,-6.186 3.82049,-5.58975 3.23659,0.46471 4.54066,4.89521 1.92815,6.55083 -2.52903,1.60272 -3.31649,1.47106 -5.74864,-0.96108 z m 0.61745,-77.731497 c -1.83333,-1.3152 -5.88333,-3.990386 -9,-5.94484 l -5.66666,-3.553573 v -8.569053 c 0,-4.712987 0.45,-8.83672 1,-9.163854 0.55,-0.327133 5.95,2.092147 12,5.37616 l 11,5.97096 v 9.211814 c 0,8.686053 -0.17123,9.207586 -3,9.137733 -1.65,-0.0408 -4.5,-1.150147 -6.33334,-2.465347 z m 1.62748,-6.460573 c 0.90814,-3.501467 -0.22514,-5.666667 -2.96598,-5.666667 -1.62484,0 -2.7386,-1.31576 -3.30792,-3.907866 -0.97087,-4.42028 -3.88259,-7.41328 -5.96184,-6.128227 -1.91315,1.182387 -1.75762,10.470213 0.20826,12.436093 0.88,0.88 2.60654,1.6 3.83675,1.6 1.2302,0 2.98367,0.9 3.89659,2 2.18556,2.63344 3.55221,2.527347 4.29414,-0.333333 z m 124.03441,-0.012 c -2.15589,-2.107453 -36.08042,-22.384413 -75.38782,-45.059893 -42.88743,-24.740707 -71.957,-42.3012003 -72.69076,-43.911387 -0.67249,-1.4757733 -7.04313,-5.89816 -14.15696,-9.827533 -8.31483,-4.592747 -12.6962,-7.7646 -12.26775,-8.88112 1.22652,-3.196267 73.1049,-110.619937 75.05554,-112.172027 1.52209,-1.21109 4.48518,-0.0785 14.18821,5.42307 15.68638,8.89414 61.47677,35.317117 85.59765,49.393423 54.14882,31.599654 75.08521,43.3808 77.09272,43.3808 2.82452,0 70.94693,-39.313586 70.79237,-40.854426 -0.0997,-0.993787 -73.98992,-44.453987 -136.21842,-80.119907 -11.18334,-6.40966 -20.33334,-12.06421 -20.33334,-12.56566 0,-0.50145 2.0683,-0.34064 4.59622,0.35735 7.30634,2.01738 45.82903,15.61773 52.12366,18.40215 3.14625,1.39173 39.22137,21.87401 80.16695,45.51619 40.94558,23.642157 79.99298,45.950023 86.77201,49.573023 6.779023,3.623 12.69665,7.1878 13.150276,7.92176 1.261414,2.041014 -3.61084,11.76952 -5.894426,11.76952 -2.7736,0 -12.55805,-2.927893 -42.91549,-12.842013 -14.30043,-4.670227 -26.97571,-8.49132 -28.16727,-8.49132 -2.5696,0 -61.19076,33.360813 -67.59488,38.46768 -2.43628,1.942773 -20.16568,26.93232 -39.39865,55.53232 -25.3577,37.70768 -35.7415,52.112627 -37.77953,52.4098 -1.69789,0.24756 -4.36224,-1.107093 -6.73031,-3.42196 z m 80.27271,-8.677453 c -0.3566,-0.929294 -0.48776,-16.94952 -0.29148,-35.600507 l 0.35688,-33.9110533 19.33333,-11.22812 c 39.84983,-23.1433867 51.21124,-29.5708667 52.27037,-29.5708667 0.59899,0 2.11653,1.2 3.37233,2.666667 1.2558,1.466666 3.21643,2.666666 4.35694,2.666666 2.94514,0 8.00036,3.803494 8.00036,6.0194 0,1.027507 -2.7137,3.45852 -6.03044,5.402267 -3.31675,1.943733 -6.61323,4.623013 -7.32551,5.953933 -0.71229,1.33092 -1.69264,12.957987 -2.17855,25.837934 -0.7168,19.000413 -1.28421,23.764306 -3.00781,25.2534 -3.36646,2.90844 -64.95889,38.199733 -66.6684,38.199733 -0.84681,0 -1.83141,-0.760333 -2.18802,-1.689613 z m 18.20045,-25.213174 c 5.66612,-3.184533 5.60728,-2.696666 1.97491,-16.377346 -1.16048,-4.370894 -2.10996,-9.035747 -2.10996,-10.366494 0,-2.154266 -4.61659,-5.0202 -8.0868,-5.0202 -1.36606,0 -1.70982,26.802067 -0.40615,31.666667 0.99931,3.72892 2.14332,3.741813 8.628,0.0972 z"
         id="path5572"
         inkscape:connector-curvature="0" />
      <path
         style="fill:#957d84;stroke-width:1.33333337"
         d="m -323.90503,244.0574 c -3.30818,-3.65552 -1.79746,-6.7657 3.28635,-6.7657 3.85024,0 4.09837,0.28922 3.70852,4.32242 -0.49988,5.17138 -3.55896,6.2399 -6.99487,2.44328 z m -20.49956,-10.20262 c -1.6324,-1.14338 -2.62254,-2.63781 -2.20033,-3.32097 1.24116,-2.00825 5.95793,-1.42289 6.82917,0.84752 1.29856,3.38399 -1.32633,4.78661 -4.62884,2.47345 z m 9.55866,-2.56341 c -1.12926,-2.94279 1.18701,-4.98973 5.03084,-4.44588 2.11616,0.2994 3.15378,1.32357 3.15378,3.11288 0,3.48381 -6.9264,4.61189 -8.18462,1.333 z m 68.12771,-10.33384 c -0.35194,-0.91713 -0.4831,-26.51727 -0.29149,-56.88917 0.26967,-42.74155 0.72507,-55.34715 2.01507,-55.77694 0.9813,-0.32693 1.66666,0.59874 1.66666,2.2511 0,3.94958 5.33296,6.21229 9.49802,4.02988 12.40292,-6.49892 117.10439,-67.57535 119.46289,-69.687323 2.4423,-2.187027 3.31806,-2.355027 5,-0.959147 3.5821,2.97288 2.30646,6.289027 -3.79462,9.864493 -3.23341,1.894907 -6.19686,4.774374 -6.64845,6.460027 -0.44812,1.672693 -0.82296,22.276573 -0.83297,45.78641 -0.0137,32.15096 -0.43128,43.27172 -1.68487,44.86968 -1.43463,1.82875 -121.42177,71.7185 -123.12674,71.7185 -0.34299,0 -0.91156,-0.75039 -1.2635,-1.66751 z m 35.95804,-30.01504 c 18.20303,-10.65665 23.9103,-15.0894 19.20998,-14.92008 -0.97778,0.0352 -3.87778,1.20436 -6.44444,2.59808 -2.56667,1.39372 -6.16667,3.28092 -8,4.19377 -1.83334,0.91286 -4.23334,2.3828 -5.33334,3.26654 -1.1,0.88373 -5.5138,3.49492 -9.80845,5.80262 -7.38349,3.9675 -7.98419,4.0807 -11.03765,2.07999 -1.77607,-1.16373 -3.81227,-1.75552 -4.5249,-1.31509 -3.07358,1.89957 -0.0279,9.98709 3.75124,9.96084 1.25754,-0.009 11.24194,-5.25874 22.18756,-11.66667 z m -9.90113,-12.20624 c 0,-0.67217 -1.59736,-2.38573 -3.54971,-3.80791 -4.84876,-3.53208 -3.45578,-7.29373 2.54795,-6.88062 11.07537,0.76209 13.95307,0.0617 15.43188,-3.75602 0.78117,-2.01666 1.61421,-4.86666 1.85123,-6.33333 0.35029,-2.16773 1.48332,-2.67557 6.05572,-2.71427 5.93974,-0.0503 9.26266,-2.03064 7.68649,-4.58094 -0.56507,-0.91431 -2.46179,-1.19424 -4.72445,-0.69727 -2.85631,0.62735 -4.08556,0.23904 -5.02898,-1.58861 -0.69353,-1.34355 -0.99593,-11.50954 -0.68021,-22.86722 l 0.5684,-20.4483 -3.07916,0.96082 c -4.32752,1.35038 -14.087,8.51679 -15.12508,11.10639 -0.47684,1.18951 -1.66188,7.26273 -2.63343,13.49607 -4.60465,29.54277 -4.90598,30.66476 -8.86373,33.00266 -3.6774,2.1723 -6.45692,7.62816 -6.45692,12.67418 0,2.1031 0.63377,2.45318 3.25161,1.79614 1.7884,-0.44886 3.62382,-0.2139 4.0787,0.52212 1.03521,1.675 8.66969,1.77724 8.66969,0.11614 z m 2.66667,-17.96856 c 0,-2.34907 4.03302,-3.97629 5.70678,-2.30253 0.69347,0.69346 0.85774,1.91313 0.36502,2.71037 -1.29871,2.10135 -6.0718,1.78073 -6.0718,-0.40784 z m 60.08721,-0.30743 c 17.85184,-10.13018 23.8138,-14.37865 22.30089,-15.89156 -0.81072,-0.81072 -7.29153,2.07438 -15.72144,6.99882 -24.22872,14.15349 -23.71586,13.9396 -28.04937,11.69865 -4.26305,-2.20451 -6.61729,-1.70823 -6.61729,1.39497 0,1.82524 5.89124,5.80294 8.75388,5.91051 0.78129,0.0293 9.48129,-4.52076 19.33333,-10.11139 z m -38.75388,0.83144 c 0,-0.73333 -0.6,-1.33333 -1.33333,-1.33333 -0.73334,0 -1.33334,0.6 -1.33334,1.33333 0,0.73334 0.6,1.33334 1.33334,1.33334 0.73333,0 1.33333,-0.6 1.33333,-1.33334 z m 30.66667,-13.3026 c 0,-0.71642 -1.5,-2.28542 -3.33334,-3.48668 -1.83333,-1.20124 -3.33333,-2.99396 -3.33333,-3.98382 0,-2.50288 4.39559,-4.6305 6.66667,-3.2269 1.06597,0.6588 2.88677,0.59579 4.27657,-0.14801 1.33115,-0.71241 3.16348,-1.19945 4.07184,-1.08233 4.00967,0.51702 5.00583,-0.43083 5.82289,-5.54044 0.66194,-4.1395 1.65924,-5.73772 4.17793,-6.69534 2.1793,-0.82856 3.88748,-0.77732 5.00502,0.15015 1.227,1.01832 2.30676,0.79781 3.9013,-0.79673 2.80607,-2.80607 1.94822,-3.60406 -4.2601,-3.9629 -6.62661,-0.38301 -9.66212,0.50675 -9.66212,2.83212 0,1.05058 -0.9,1.91015 -2,1.91015 -1.1,0 -2,1.12653 -2,2.50341 0,1.37687 -0.93011,3.27532 -2.06692,4.21879 -1.70493,1.41497 -2.44328,1.33903 -4.21592,-0.43361 -1.97644,-1.97644 -1.86401,-2.27886 1.40025,-3.76615 4.00967,-1.82693 4.54255,-3.55831 1.45931,-4.74145 -2.88535,-1.10722 -8.64137,2.21546 -9.99201,5.76792 -0.61454,1.61636 -2.94751,4.29193 -5.18436,5.9457 -2.23686,1.65379 -4.06702,3.79404 -4.06702,4.75614 0,0.96209 -1.22188,2.97113 -2.71529,4.46454 -3.19844,3.19844 -2.19377,5.79304 1.86075,4.80554 1.57,-0.38239 4.95454,-0.19243 7.52121,0.42214 6.47688,1.55084 6.66667,1.55334 6.66667,0.0877 z m 23.99999,-18.6974 c 0,-0.73333 -0.26458,-1.33333 -0.58797,-1.33333 -0.32339,0 -0.9588,0.6 -1.41203,1.33333 -0.45322,0.73334 -0.18864,1.33334 0.58798,1.33334 0.77661,0 1.41202,-0.6 1.41202,-1.33334 z m -214.77192,47.66667 c -0.0579,-15.58333 -0.30542,-27.73333 -0.55004,-27 -0.24463,0.73333 -0.80868,2.98333 -1.25347,5 -0.54681,2.47924 -1.65583,3.66667 -3.42456,3.66667 -3.14668,0 -4.34364,-3.85988 -3.75439,-12.10695 0.43264,-6.05524 1.44896,-6.74215 6.75439,-4.56519 2.17012,0.89047 2.33333,-0.68461 2.33333,-22.51854 0,-14.76178 0.49494,-23.47599 1.33334,-23.47599 0.8433,0 1.33333,9.55556 1.33333,26 v 26 h 3.28643 c 4.65897,0 6.35148,3.92792 5.01725,11.64388 -1.00983,5.84001 -1.39157,6.33573 -4.70137,6.10511 l -3.60231,-0.25103 v 19.91769 c 0,12.38956 -0.50395,19.91768 -1.33333,19.91768 -0.84376,0 -1.37199,-10.4035 -1.4386,-28.33333 z m -41.09473,5.8 c -2.74852,-2.74852 -2.8,-3.75411 -2.8,-54.69095 0,-28.540023 0.36418,-52.840023 0.80932,-53.999997 0.91,-2.37144 5.24414,-2.846586 6.55902,-0.719066 1.2984,2.100853 0.69399,109.747683 -0.6236,111.065263 -0.63744,0.63744 -2.38558,-0.0961 -3.94474,-1.65525 z m -18.85576,-4.23752 c -2.06058,-3.85023 -0.65987,-6.56248 3.38909,-6.56248 1.87936,0 3.7444,0.85312 4.14452,1.89581 0.97285,2.53522 -1.75893,7.43752 -4.14452,7.43752 -1.0484,0 -2.57349,-1.24688 -3.38909,-2.77085 z m -21.86126,-10.00331 c -2.46198,-2.46198 -1.61908,-4.55917 1.83244,-4.55917 2.93847,0 5.97774,3.34883 4.78734,5.27493 -1.25082,2.02386 -4.19892,1.7051 -6.61978,-0.71576 z m 11.96623,-1.3671 c -2.70888,-2.70888 -0.33233,-6.186 3.82049,-5.58975 3.23659,0.46471 4.54066,4.89521 1.92815,6.55083 -2.52903,1.60272 -3.31649,1.47106 -5.74864,-0.96108 z m 0.61745,-77.731497 c -1.83333,-1.3152 -5.88333,-3.990386 -9,-5.94484 l -5.66666,-3.553573 v -8.569053 c 0,-8.69716 1.22508,-11.403347 3.77265,-8.333707 0.89108,1.07368 0.95405,2.41468 0.17149,3.651987 -1.77066,2.799626 -1.56421,11.135213 0.32252,13.021946 0.88,0.88 2.49134,1.6 3.58074,1.6 1.0894,0 3.35374,1.28988 5.03186,2.8664 2.64871,2.488334 3.15854,2.586534 3.86538,0.744547 1.37664,-3.587467 0.0373,-6.923853 -2.95118,-7.351947 -2.05318,-0.294106 -3.02676,-1.594053 -3.49501,-4.666666 -0.35697,-2.342454 -0.49445,-4.43472 -0.30549,-4.64948 0.18896,-0.21476 2.36784,0.49144 4.84196,1.569333 2.47413,1.077893 5.54841,2.284773 6.83174,2.68196 1.93252,0.598107 2.33334,2.3326 2.33334,10.097347 0,8.855466 -0.16631,9.371066 -3,9.301093 -1.65,-0.0408 -4.5,-1.150147 -6.33334,-2.465347 z m 127.64187,-4.410253 c -2.13011,-1.563773 1.19684,-7.03136 37.28483,-61.274933 l 39.62364,-59.557947 10.05816,-5.699373 c 5.53199,-3.134667 22.26168,-12.811587 37.1771,-21.50428 l 27.11891,-15.804894 30.21442,10.238894 c 27.21413,9.222173 45.54773,16.7188 45.54773,18.62452 0,0.385333 -1.242254,3.135626 -2.760574,6.11176 -1.95884,3.83964 -3.410946,5.222533 -5,4.761666 -1.231676,-0.35724 -5.239426,-1.4 -8.906096,-2.317253 -3.66666,-0.917253 -18.36702,-5.483893 -32.66746,-10.148107 -14.30043,-4.6642 -26.97571,-8.480373 -28.16727,-8.480373 -2.5696,0 -61.19076,33.360813 -67.59488,38.46768 -2.43628,1.942773 -20.16568,26.93232 -39.39865,55.53232 -23.77101,35.3482 -35.80516,52.122853 -37.58006,52.383653 -1.43606,0.211014 -3.66347,-0.388986 -4.9498,-1.333333 z m 100.00257,-3.88244 c 0.90445,-0.911227 1.98032,-1.320893 2.39084,-0.910373 0.41052,0.41052 -0.32948,1.156066 -1.64444,1.656773 -1.90027,0.723573 -2.05342,0.570427 -0.7464,-0.7464 z m 5.68889,-3.025227 c 0,-0.288213 0.93116,-0.881333 2.06925,-1.318066 1.18656,-0.45532 1.72176,-0.2318 1.25464,0.524013 -0.78301,1.266947 -3.32389,1.873933 -3.32389,0.794053 z m -27.39873,-3.832266 c -0.3566,-0.929294 -0.48776,-16.949574 -0.29148,-35.600614 l 0.35688,-33.9109997 29.33333,-17.1144663 c 39.31559,-22.9386 41.56169,-24.074187 44.3744,-22.434787 1.96384,1.144627 1.80452,1.341867 -1.11191,1.3766 -1.87231,0.02227 -12.3723,5.2028 -23.33333,11.512213 -10.96104,6.309427 -25.7966,14.8472937 -32.96792,18.9730403 -13.67427,7.86696 -15.06589,9.9326134 -8.9518,13.2875067 3.1508,1.728907 5.02499,0.84024 35.99056,-17.0654533 17.96667,-10.3891337 33.71801,-20.1073737 35.00298,-21.5961067 2.20402,-2.553493 2.5249,-2.5832 5.66667,-0.52464 4.80807,3.150373 4.1324,5.5382 -2.70009,9.54232 -3.31675,1.943733 -6.61323,4.623013 -7.32551,5.953933 -0.71229,1.33092 -1.69264,12.957987 -2.17855,25.837934 -0.7168,19.000413 -1.28421,23.764306 -3.00781,25.2534 -3.36646,2.90844 -64.95889,38.199733 -66.6684,38.199733 -0.84681,0 -1.83141,-0.760333 -2.18802,-1.689613 z m 36.24714,-29.977054 c 12.64524,-7.15 23.2719,-13.654413 23.61478,-14.45424 0.34288,-0.79984 0.15466,-2.212706 -0.41826,-3.13972 -0.76501,-1.237813 -5.24742,0.802054 -16.87664,7.680267 -17.61406,10.418 -19.30973,11.12172 -19.8717,8.247027 -0.21506,-1.1 -1.34475,-5.576054 -2.51046,-9.9468 -1.1657,-4.370734 -2.11946,-8.976787 -2.11946,-10.23568 0,-1.25888 -1.83062,-3.202107 -4.06804,-4.31828 -5.51315,-2.75032 -5.75198,-1.842067 -4.99902,19.010226 0.57294,15.866454 1.2983,20.1572 3.4076,20.1572 0.46742,0 11.19596,-5.85 23.8412,-13 z"
         id="path5570"
         inkscape:connector-curvature="0" />
      <path
         style="fill:#5895a8;stroke-width:1.33333337"
         d="m -321.32797,245.2917 c -0.45323,-0.73333 0.14677,-1.33333 1.33333,-1.33333 1.18656,0 1.78656,0.6 1.33333,1.33333 -0.45322,0.73334 -1.05322,1.33334 -1.33333,1.33334 -0.28011,0 -0.88011,-0.6 -1.33333,-1.33334 z m 54.60975,-24.33417 c -0.35194,-0.91713 -0.4831,-26.51727 -0.29149,-56.88917 0.26967,-42.74155 0.72507,-55.34715 2.01507,-55.77694 0.9813,-0.32693 1.66666,0.59874 1.66666,2.2511 0,3.94958 5.33296,6.21229 9.49802,4.02988 12.40292,-6.49892 117.10439,-67.57535 119.46289,-69.687323 2.4423,-2.187027 3.31806,-2.355027 5,-0.959147 3.35634,2.78552 2.38326,4.86836 -4.62758,9.905147 l -6.66666,4.78952 v 45.080723 c 0,34.0426 -0.4081,45.6009 -1.66667,47.20522 -1.43463,1.82875 -121.42177,71.7185 -123.12674,71.7185 -0.34299,0 -0.91156,-0.75039 -1.2635,-1.66751 z m 35.71887,-29.85612 c 17.47372,-10.11805 22.66465,-14.03352 20.83609,-15.71643 -0.27393,-0.2521 -3.19805,0.94418 -6.49805,2.6584 -3.3,1.71424 -7.5,3.8624 -9.33333,4.77371 -1.83334,0.91131 -4.23334,2.37997 -5.33334,3.26371 -1.1,0.88373 -5.5138,3.49492 -9.80845,5.80262 -7.38349,3.9675 -7.98419,4.0807 -11.03765,2.07999 -1.77607,-1.16373 -3.81227,-1.75552 -4.5249,-1.31509 -3.01006,1.86032 -0.0556,9.97672 3.63167,9.97672 1.19176,0 11.12235,-5.18563 22.06796,-11.52363 z m -18.04829,-8.47637 c 0.49394,-1.88887 1.81869,-2.66667 4.54184,-2.66667 3.79644,0 5.10153,-1.73239 2.51116,-3.33333 -2.47164,-1.52756 -1.35798,-3.33334 2.05574,-3.33334 1.864,0 4.67714,-1.2 6.25142,-2.66666 1.57429,-1.46667 3.55289,-2.66667 4.3969,-2.66667 0.844,0 2.2504,-1.57109 3.12531,-3.49132 1.35063,-2.96428 2.19223,-3.37103 5.57513,-2.69444 2.8836,0.57672 4.6729,0.1084 6.47651,-1.69525 2.43395,-2.43395 2.52387,-2.42552 3.85132,0.3611 0.74756,1.56928 1.72772,3.98912 2.17815,5.37742 0.45042,1.38829 1.1809,2.16222 1.62328,1.71984 0.44238,-0.44238 2.61142,0.13013 4.8201,1.2723 3.24046,1.67571 4.68799,1.77418 7.49762,0.50999 6.81329,-3.06561 36.06794,-20.32265 37.61823,-22.19064 3.93556,-4.74205 -2.27168,-2.88021 -14.80305,4.44015 -23.88938,13.95526 -23.77766,13.90764 -27.77398,11.84106 -8.18366,-4.23193 -8.7104,-10.11688 -0.90554,-10.11688 3.34026,0 4.54386,-0.67054 5.11348,-2.84877 0.62187,-2.37805 1.41867,-2.71404 4.82218,-2.03333 3.89376,0.77874 5.56065,-0.71036 2.74386,-2.45123 -2.71816,-1.67992 -1.43846,-4.74299 1.66667,-3.98932 2.03745,0.49453 4.24299,-0.35292 6.87405,-2.64125 2.13074,-1.85319 4.38074,-3.36943 5,-3.36943 0.61927,0 1.12595,-0.87889 1.12595,-1.95309 0,-2.3111 3.93826,-4.6138 6.39054,-3.73655 0.94814,0.33917 3.1319,0.26329 4.85279,-0.16863 2.3796,-0.59724 3.25909,-1.90058 3.67259,-5.44246 0.29902,-2.56146 -0.0315,-4.84888 -0.73439,-5.0832 -0.74464,-0.24822 -1.32751,-10.22768 -1.39648,-23.909403 -0.0651,-12.915854 -0.54776,-23.912987 -1.07255,-24.438067 -0.52478,-0.52508 -13.72478,6.416453 -29.33333,15.42564 -15.60854,9.009187 -31.07917,17.84311 -34.37917,19.63095 -3.3,1.78784 -6.9,4.02304 -8,4.96712 -1.1,0.94406 -6.96253,4.28501 -13.02787,7.42432 -8.0929,4.18874 -11.242,6.56105 -11.8325,8.9138 -1.42935,5.69494 0.20253,49.30368 1.92253,51.37616 0.86975,1.04798 1.22649,2.26032 0.79276,2.69405 -1.23684,1.23684 0.7518,3.63269 3.01527,3.63269 1.12537,0 2.35993,-1.2 2.74348,-2.66666 z m -127.71893,-5.66667 c -0.0579,-15.58333 -0.30542,-27.73333 -0.55004,-27 -0.24463,0.73333 -0.80868,2.98333 -1.25347,5 -0.54681,2.47924 -1.65583,3.66667 -3.42456,3.66667 -3.14668,0 -4.34364,-3.85988 -3.75439,-12.10695 0.43264,-6.05524 1.44896,-6.74215 6.75439,-4.56519 2.17012,0.89047 2.33333,-0.68461 2.33333,-22.51854 0,-14.76178 0.49494,-23.47599 1.33334,-23.47599 0.8433,0 1.33333,9.55556 1.33333,26 v 26 h 3.28643 c 4.65897,0 6.35148,3.92792 5.01725,11.64388 -1.00983,5.84001 -1.39157,6.33573 -4.70137,6.10511 l -3.60231,-0.25103 v 19.91769 c 0,12.38956 -0.50395,19.91768 -1.33333,19.91768 -0.84376,0 -1.37199,-10.4035 -1.4386,-28.33333 z m -41.09473,5.8 c -2.74852,-2.74852 -2.8,-3.75411 -2.8,-54.69095 0,-28.540023 0.36418,-52.840023 0.80932,-53.999997 0.91,-2.37144 5.24414,-2.846586 6.55902,-0.719066 1.2984,2.100853 0.69399,109.747683 -0.6236,111.065263 -0.63744,0.63744 -2.38558,-0.0961 -3.94474,-1.65525 z m -16.13334,-2.8 c 0,-0.73333 0.6,-1.33333 1.33334,-1.33333 0.73333,0 1.33333,0.6 1.33333,1.33333 0,0.73333 -0.6,1.33333 -1.33333,1.33333 -0.73334,0 -1.33334,-0.6 -1.33334,-1.33333 z m -12,-90.539427 c -1.83333,-1.3152 -5.88333,-3.990386 -9,-5.94484 l -5.66666,-3.553573 v -8.569053 c 0,-8.69716 1.22508,-11.403347 3.77265,-8.333707 0.89108,1.07368 0.95405,2.41468 0.17149,3.651987 -1.77066,2.799626 -1.56421,11.135213 0.32252,13.021946 0.88,0.88 2.49134,1.6 3.58074,1.6 1.0894,0 3.35374,1.28988 5.03186,2.8664 2.64871,2.488334 3.15854,2.586534 3.86538,0.744547 1.37664,-3.587467 0.0373,-6.923853 -2.95118,-7.351947 -2.05318,-0.294106 -3.02676,-1.594053 -3.49501,-4.666666 -0.35697,-2.342454 -0.49445,-4.43472 -0.30549,-4.64948 0.18896,-0.21476 2.36784,0.49144 4.84196,1.569333 2.47413,1.077893 5.54841,2.284773 6.83174,2.68196 1.93252,0.598107 2.33334,2.3326 2.33334,10.097347 0,8.855466 -0.16631,9.371066 -3,9.301093 -1.65,-0.0408 -4.5,-1.150147 -6.33334,-2.465347 z m 127.64187,-4.410253 c -2.13011,-1.563773 1.19684,-7.03136 37.28483,-61.274933 l 39.62364,-59.557947 10.05816,-5.699373 c 5.53199,-3.134667 22.26168,-12.811587 37.1771,-21.50428 l 27.11891,-15.804894 30.21442,10.238894 c 27.21413,9.222173 45.54773,16.7188 45.54773,18.62452 0,0.385333 -1.242254,3.135626 -2.760574,6.11176 -1.95884,3.83964 -3.410946,5.222533 -5,4.761666 -1.231676,-0.35724 -5.239426,-1.4 -8.906096,-2.317253 -3.66666,-0.917253 -18.36702,-5.483893 -32.66746,-10.148107 -14.30043,-4.6642 -26.97571,-8.480373 -28.16727,-8.480373 -2.5696,0 -61.19076,33.360813 -67.59488,38.46768 -2.43628,1.942773 -20.16568,26.93232 -39.39865,55.53232 -23.77101,35.3482 -35.80516,52.122853 -37.58006,52.383653 -1.43606,0.211014 -3.66347,-0.388986 -4.9498,-1.333333 z m 100.00257,-3.88244 c 0.90445,-0.911227 1.98032,-1.320893 2.39084,-0.910373 0.41052,0.41052 -0.32948,1.156066 -1.64444,1.656773 -1.90027,0.723573 -2.05342,0.570427 -0.7464,-0.7464 z m 5.68889,-3.025227 c 0,-0.288213 0.93116,-0.881333 2.06925,-1.318066 1.18656,-0.45532 1.72176,-0.2318 1.25464,0.524013 -0.78301,1.266947 -3.32389,1.873933 -3.32389,0.794053 z m -27.39873,-3.832266 c -0.3566,-0.929294 -0.48776,-16.949574 -0.29148,-35.600614 l 0.35688,-33.9109997 29.33333,-17.1144663 c 39.31559,-22.9386 41.56169,-24.074187 44.3744,-22.434787 1.96384,1.144627 1.80452,1.341867 -1.11191,1.3766 -1.87231,0.02227 -12.3723,5.2028 -23.33333,11.512213 -10.96104,6.309427 -25.7966,14.8472937 -32.96792,18.9730403 -13.67427,7.86696 -15.06589,9.9326134 -8.9518,13.2875067 3.1508,1.728907 5.02499,0.84024 35.99056,-17.0654533 17.96667,-10.3891337 33.69104,-20.0740797 34.94305,-21.5220937 1.87107,-2.164 2.77567,-2.365573 5.08044,-1.132093 4.03712,2.1606 2.82461,5.1684 -4.02349,9.980893 l -6,4.21648 -0.85882,11.895027 c -0.47234,6.5422667 -0.92234,17.95204 -1,25.35504 -0.11586,11.042347 -0.56029,13.823653 -2.47451,15.484467 -3.48728,3.025626 -65.0937,38.388853 -66.87738,38.388853 -0.84681,0 -1.83141,-0.760333 -2.18802,-1.689613 z m 36.24714,-29.977054 c 12.64524,-7.15 23.2719,-13.654413 23.61478,-14.45424 0.34288,-0.79984 0.15738,-2.20832 -0.41223,-3.12996 -0.75595,-1.223146 -5.64747,1.042094 -18.11189,8.387534 -9.39195,5.534786 -17.68556,9.68668 -18.43026,9.22644 -0.83452,-0.515774 -0.61637,-1.28536 0.5686,-2.005974 1.05743,-0.643053 8.07259,-4.75008 15.58926,-9.126746 l 13.66666,-7.957574 v -13.30308 c 0,-10.5529463 -0.38829,-13.3030663 -1.87829,-13.3030663 -1.03307,0 -9.77575,4.53804 -19.42819,10.0845466 -14.03578,8.0652667 -17.9282,9.7705597 -19.43925,8.5164937 -3.07412,-2.55128 -3.65841,1.341826 -2.98799,19.908426 0.57294,15.866454 1.2983,20.1572 3.4076,20.1572 0.46742,0 11.19596,-5.85 23.8412,-13 z"
         id="path5568"
         inkscape:connector-curvature="0" />
      <path
         style="fill:#3689a7;stroke-width:1.33333337"
         d="m -321.32797,245.2917 c -0.45323,-0.73333 0.14677,-1.33333 1.33333,-1.33333 1.18656,0 1.78656,0.6 1.33333,1.33333 -0.45322,0.73334 -1.05322,1.33334 -1.33333,1.33334 -0.28011,0 -0.88011,-0.6 -1.33333,-1.33334 z m 55.65101,-77 c 0.3422,-50.66145 0.40086,-51.66666 3.01565,-51.66666 2.57743,0 2.69167,1.13788 3.41365,34 0.41084,18.7 0.86203,34 1.00266,34 0.14061,0 2.11569,0.13066 4.38908,0.29033 3.13157,0.21996 4.29972,-0.34559 4.81952,-2.33333 0.48224,-1.84408 1.82845,-2.62367 4.5306,-2.62367 3.79644,0 5.10153,-1.73239 2.51116,-3.33333 -2.47164,-1.52756 -1.35798,-3.33334 2.05574,-3.33334 1.864,0 4.67714,-1.2 6.25142,-2.66666 1.57429,-1.46667 3.55289,-2.66667 4.3969,-2.66667 0.844,0 2.2504,-1.57109 3.12531,-3.49132 1.35063,-2.96428 2.19223,-3.37103 5.57513,-2.69444 2.8836,0.57672 4.6729,0.1084 6.47651,-1.69525 2.43395,-2.43395 2.53144,-2.41867 4.17627,0.65469 1.78842,3.34173 2.07284,10.19173 0.527,12.69295 -0.51063,0.82621 -3.40099,2.69558 -6.42302,4.15413 -7.55521,3.64647 -13.80532,7.09617 -15.81206,8.72737 -0.92539,0.75222 -5.14042,3.22856 -9.36671,5.50298 l -7.68416,4.1353 -4.98251,-2.68266 -4.98249,-2.68267 -0.44896,2.86412 c -0.24692,1.57525 -0.0563,4.95743 0.42373,7.51591 0.81882,4.36464 1.1346,4.60753 5.11563,3.93472 5.51029,-0.93127 43.18528,-22.74582 46.44888,-26.8948 1.37896,-1.75307 5.35151,-4.02119 8.82788,-5.04026 9.13004,-2.67638 43.96425,-23.17734 45.01684,-26.49373 0.47272,-1.4894 0.5712,-2.99628 0.21885,-3.34863 -0.66784,-0.66784 -10.22945,3.7552 -18.26952,8.45116 -23.90286,13.96096 -23.77728,13.90742 -27.77398,11.84064 -8.18366,-4.23193 -8.7104,-10.11688 -0.90554,-10.11688 3.34026,0 4.54386,-0.67054 5.11348,-2.84877 0.62187,-2.37805 1.41867,-2.71404 4.82218,-2.03333 3.89376,0.77874 5.56065,-0.71036 2.74386,-2.45123 -2.71816,-1.67992 -1.43846,-4.74299 1.66667,-3.98932 2.03745,0.49453 4.24299,-0.35292 6.87405,-2.64125 2.13074,-1.85319 4.38074,-3.36943 5,-3.36943 0.61927,0 1.12595,-0.87889 1.12595,-1.95309 0,-2.3111 3.93826,-4.6138 6.39054,-3.73655 2.90284,1.03841 8.27612,-0.91091 8.27612,-3.00243 0,-1.08602 0.9,-1.9746 2,-1.9746 1.1,0 2,0.72 2,1.6 0,0.96806 0.42342,1.09971 1.07204,0.33334 0.58962,-0.69667 0.82994,-14.31667 0.53404,-30.26667 l -0.53798,-29 h -3.60082 c -2.17401,0 -16.12083,7.132333 -35.19786,18 -17.37839,9.9 -32.1152,18 -32.74849,18 -0.6333,0 -5.69084,2.99293 -11.23899,6.65097 -11.71915,7.72672 -16.59607,10.14602 -17.87487,8.8672 -0.50325,-0.50325 -0.0507,-1.74937 1.00563,-2.76916 1.05636,-1.01978 22.92064,-14.00984 48.58731,-28.866783 66.71709,-38.618667 71.34466,-41.21556 73.44478,-41.21556 3.53079,0 1.90469,2.403813 -3.94516,5.832053 -3.23341,1.894907 -6.19687,4.774373 -6.64845,6.460027 -0.44812,1.672693 -0.82296,22.682746 -0.83298,46.689003 l -0.0182,43.64774 -5,3.2429 c -9.32646,6.04893 -116.56655,67.46161 -117.80285,67.46161 -0.73393,0 -1.08797,-20.7992 -0.87946,-51.66667 z m -168.31768,11.66667 c 0,-0.73333 0.6,-1.33333 1.33334,-1.33333 0.73333,0 1.33333,0.6 1.33333,1.33333 0,0.73333 -0.6,1.33333 -1.33333,1.33333 -0.73334,0 -1.33334,-0.6 -1.33334,-1.33333 z m 62.71571,-15.27424 c -0.9265,-1.11636 -2.21655,-1.70093 -2.86679,-1.29905 -0.65024,0.40186 -1.13488,-3.05474 -1.07699,-7.68135 0.0579,-4.62661 0.4063,-7.66683 0.77423,-6.75601 0.47096,1.16585 1.38499,1.27281 3.08805,0.36134 3.7396,-2.00136 5.57336,1.38766 5.10588,9.43627 -0.42493,7.31633 -2.16964,9.37856 -5.02438,5.9388 z m -13.09904,-7.64243 c -2.47159,-2.47158 -2.09495,-14.31682 0.48672,-15.3075 3.75096,-1.43938 5.62569,2.3108 4.72454,9.4509 -0.86106,6.82258 -2.45452,8.61335 -5.21126,5.8566 z m -56.72777,-67.305557 c -0.4889,-0.48888 -0.8889,-3.503733 -0.8889,-6.699666 0,-4.97132 -0.48154,-5.993867 -3.33333,-7.078107 -1.83333,-0.697027 -3.33333,-2.182187 -3.33333,-3.300333 0,-2.567467 1.20988,-2.55536 6.46181,0.06467 4.00865,1.999774 4.20485,2.466387 4.20485,10 0,7.305027 -0.8664,9.258174 -3.1111,7.013454 z m 123.61777,-7.71392 c -0.40863,-1.064893 -0.27642,-2.714893 0.29382,-3.666666 6.08479,-10.15608 73.48833,-110.438227 75.64843,-112.548787 3.94881,-3.858253 72.5519,-43.18276 75.32493,-43.177573 6.05313,0.01067 73.559476,25.243026 73.559476,27.4942 0,1.474266 -4.684293,9.834973 -5.510293,9.834973 -0.559013,0 -16.184583,-5.1 -34.723483,-11.333333 -18.53889,-6.233334 -34.9204,-11.308494 -36.40332,-11.278134 -1.48293,0.0304 -17.99623,8.912894 -36.69623,19.73896 l -34,19.683734 -36,53.590573 c -35.26412,52.49512 -39.26305,57.474067 -41.49333,51.662053 z m 79.01263,-8.32232 c -1.31434,-1.314346 -0.96862,-58.160546 0.36655,-60.26916 0.64809,-1.02352 2.07636,-1.51636 3.17392,-1.095186 1.63293,0.626626 2.0814,4.768933 2.46789,22.795 0.31682,14.77572 0.99894,22.555586 2.07163,23.627813 1.24324,1.242693 6.62709,-1.265253 24.1826,-11.26492 12.42081,-7.074933 23.72381,-13.914613 25.11777,-15.199293 2.29924,-2.119 2.48879,-3.987307 2.04223,-20.13048 l -0.49223,-17.794707 -4.67173,0.8764267 c -2.56945,0.4820266 -12.53297,5.3056133 -22.14115,10.7190933 -16.16256,9.106347 -19.63678,10.406587 -19.63678,7.34912 0,-1.094733 57.90437,-35.307827 65.6723,-38.802813 4.73813,-2.131814 6.58981,-0.278187 2.57997,2.58268 -11.61048,8.28368 -12.10742,9.875386 -12.19421,39.05768 l -0.0581,19.526133 -33,19.01188 c -18.15,10.456533 -33.36631,19.203467 -33.81403,19.437627 -0.44772,0.23416 -1.19772,0.042 -1.66667,-0.426894 z"
         id="path5566"
         inkscape:connector-curvature="0" />
      <path
         style="fill:#6a9c4a;stroke-width:1.33333337"
         d="m -321.32797,245.2917 c -0.45323,-0.73333 0.14677,-1.33333 1.33333,-1.33333 1.18656,0 1.78656,0.6 1.33333,1.33333 -0.45322,0.73334 -1.05322,1.33334 -1.33333,1.33334 -0.28011,0 -0.88011,-0.6 -1.33333,-1.33334 z m 55.33333,-76 c 0,-27.86666 0.33944,-50.66666 0.75432,-50.66666 0.41488,0 1.91488,0.6211 3.33333,1.38024 2.42645,1.2986 2.58456,3.13241 2.67273,31 0.0516,16.29086 0.50154,30.51976 1,31.61976 0.49846,1.1 2.60454,2.18028 4.68018,2.40061 2.87368,0.30504 3.94445,-0.25155 4.48885,-2.33333 0.51227,-1.95895 1.80475,-2.73395 4.55943,-2.73395 3.79644,0 5.10153,-1.73239 2.51116,-3.33333 -2.47164,-1.52756 -1.35798,-3.33334 2.05574,-3.33334 1.864,0 4.67714,-1.2 6.25142,-2.66666 1.57429,-1.46667 3.55289,-2.66667 4.3969,-2.66667 0.844,0 2.2504,-1.57109 3.12531,-3.49132 1.35063,-2.96428 2.19223,-3.37103 5.57513,-2.69444 2.8836,0.57672 4.6729,0.1084 6.47651,-1.69525 2.43395,-2.43395 2.53144,-2.41867 4.17627,0.65469 1.78842,3.34173 2.07284,10.19173 0.527,12.69295 -0.51063,0.82621 -3.40099,2.69558 -6.42302,4.15413 -7.55521,3.64647 -13.80532,7.09617 -15.81206,8.72737 -0.92539,0.75222 -5.14042,3.22856 -9.36671,5.50298 l -7.68416,4.1353 -4.96469,-2.6609 c -4.66714,-2.50144 -5.02007,-2.52102 -5.88879,-0.32655 -0.50825,1.28391 -0.96627,4.9032 -1.0178,8.04288 -0.11067,6.74443 2.49511,8.53231 7.79751,5.34992 1.89316,-1.13624 12.42104,-7.28979 23.39529,-13.67453 10.97424,-6.38476 20.72943,-12.71692 21.67819,-14.07146 0.94876,-1.35454 5.09608,-3.72408 9.21626,-5.26564 10.1522,-3.79842 43.42053,-23.24974 45.45839,-26.5786 3.49804,-5.71406 -3.38698,-3.90573 -18.30603,4.80804 -23.90286,13.96096 -23.77728,13.90742 -27.77398,11.84064 -8.18366,-4.23193 -8.7104,-10.11688 -0.90554,-10.11688 3.34026,0 4.54386,-0.67054 5.11348,-2.84877 0.62187,-2.37805 1.41867,-2.71404 4.82218,-2.03333 3.89376,0.77874 5.56065,-0.71036 2.74386,-2.45123 -2.71816,-1.67992 -1.43846,-4.74299 1.66667,-3.98932 2.03745,0.49453 4.24299,-0.35292 6.87405,-2.64125 2.13074,-1.85319 4.38074,-3.36943 5,-3.36943 0.61927,0 1.12595,-0.87889 1.12595,-1.95309 0,-2.3111 3.93826,-4.6138 6.39054,-3.73655 2.90284,1.03841 8.27612,-0.91091 8.27612,-3.00243 0,-2.87101 3.08186,-2.41765 5.05622,0.7438 3.5459,5.67791 4.27712,0.8538 4.27712,-28.218077 0,-30.445626 -0.52926,-33.795573 -5.63788,-35.685373 -2.38344,-0.881693 -0.78459,-2.25028 10.81584,-9.258133 14.4245,-8.713867 14.82204,-8.902067 14.82204,-7.01684 0,0.663653 -2.62518,2.74508 -5.83371,4.625413 -3.23341,1.894907 -6.19687,4.774373 -6.64845,6.460027 -0.44812,1.672693 -0.82296,22.682746 -0.83298,46.689003 l -0.0182,43.64774 -5,3.2429 c -9.25532,6.00278 -116.56171,67.46161 -117.78719,67.46161 -0.70691,0 -1.2128,-21.13479 -1.2128,-50.66667 z m -168,10.66667 c 0,-0.73333 0.6,-1.33333 1.33334,-1.33333 0.73333,0 1.33333,0.6 1.33333,1.33333 0,0.73333 -0.6,1.33333 -1.33333,1.33333 -0.73334,0 -1.33334,-0.6 -1.33334,-1.33333 z m 64,-22.66667 c 0,-4.20984 0.51079,-6.50836 1.33333,-6 0.73334,0.45323 1.33334,3.15323 1.33334,6 0,2.84678 -0.6,5.54678 -1.33334,6 -0.82254,0.50836 -1.33333,-1.79016 -1.33333,-6 z m -13.33333,-7.25464 c 0,-3.34328 0.6,-6.07869 1.33333,-6.07869 0.73333,0 1.33333,2.36459 1.33333,5.25464 0,2.89005 -0.6,5.62547 -1.33333,6.07869 -0.81441,0.50334 -1.33333,-1.5417 -1.33333,-5.25464 z M -252.66131,118.906 c 0,-1.18631 14.19992,-9.6143 16.19865,-9.6143 2.52015,0 -0.3493,2.55715 -7.38913,6.58494 -7.50753,4.29537 -8.80952,4.74309 -8.80952,3.02936 z m 26.66667,-15.56338 c 0,-1.17629 63.65327,-38.050917 65.68379,-38.050917 3.82802,0 -2.93197,4.44944 -31.34762,20.63308 -28.94295,16.483957 -34.33617,19.219797 -34.33617,17.417837 z m -213.6986,-19.717583 c 0.84655,-10.276734 1.47374,-10.801587 1.59334,-1.333334 0.0579,4.583334 -0.40666,8.333334 -1.03235,8.333334 -0.62568,0 -0.87812,-3.15 -0.56099,-7 z m 201.2179,-9.925134 c -1.20913,-1.209133 -1.06473,-59.0792 0.14736,-59.054453 3.82316,0.078 4.35631,2.778627 4.5626,23.11076 0.26319,25.940053 0.77939,27.07596 10.03954,22.0922 18.05808,-9.718733 45.26601,-25.816453 46.7312,-27.648773 1.137,-1.421894 1.66666,-7.48116 1.66666,-19.066134 V -3.84835 l -4.0945,-3.20444 -4.09452,-3.20444 13.62305,-8.252547 c 7.49268,-4.538906 13.98521,-7.879586 14.42785,-7.42376 0.44263,0.45584 -0.58168,1.818 -2.27627,3.027014 -11.61048,8.28368 -12.10742,9.875386 -12.19421,39.05768 l -0.0581,19.526133 -33,19.01188 c -18.15,10.456533 -33.36631,19.203467 -33.81403,19.437627 -0.44772,0.23416 -1.19772,0.042 -1.66667,-0.426894 z m 14.05396,-59.128013 c 0.55231,-1.65692 6.55872,-5.423 30.0934,-18.86884 4.76372,-2.7216 6.99719,-3.4261333 6.9912,-2.2052933 -0.008,1.62252 -4.22372,4.2417466 -29.84698,18.5438003 -4.7222,2.635773 -7.6092,3.645093 -7.23762,2.530333 z"
         id="path5564"
         inkscape:connector-curvature="0" />
      <path
         style="fill:#397b96;stroke-width:1.33333337"
         d="m -265.99464,169.2917 c 0,-27.86666 0.48532,-50.66666 1.07849,-50.66666 0.59317,0 2.05281,0.75 3.24364,1.66666 1.89287,1.45708 2.1832,6.02616 2.30875,36.33334 0.0789,19.06666 -0.25419,38.10728 -0.74035,42.31248 -0.7638,6.60656 -0.55937,7.77037 1.50397,8.56216 1.35204,0.51882 3.88114,0.0201 5.83006,-1.14955 1.89316,-1.13624 12.42104,-7.28979 23.39529,-13.67453 10.97424,-6.38476 20.72943,-12.71692 21.67819,-14.07146 0.94876,-1.35454 5.09608,-3.72408 9.21626,-5.26564 10.29214,-3.85077 43.43263,-23.2699 45.51589,-26.67066 1.41938,-2.31702 1.36486,-2.89739 -0.33333,-3.54904 -1.38592,-0.53183 -2.0302,-2.61292 -2.0302,-6.55772 0,-3.17827 -0.6,-6.14948 -1.33333,-6.60271 -1.9077,-1.17901 -1.64916,-4.66667 0.34593,-4.66667 0.9236,0 2.44323,1.22328 3.37695,2.7184 3.5459,5.67791 4.27712,0.8538 4.27712,-28.218077 0,-30.445626 -0.52926,-33.795573 -5.63788,-35.685373 -2.38344,-0.881693 -0.78459,-2.25028 10.81584,-9.258133 14.4245,-8.713867 14.82204,-8.902067 14.82204,-7.01684 0,0.663653 -2.62518,2.74508 -5.83371,4.625413 -3.23341,1.894907 -6.19687,4.774373 -6.64845,6.460027 -0.44812,1.672693 -0.82296,22.682746 -0.83298,46.689003 l -0.0182,43.64774 -5,3.2429 c -9.25532,6.00278 -116.56171,67.46161 -117.78719,67.46161 -0.70691,0 -1.2128,-21.13479 -1.2128,-50.66667 z m -104,-12 c 0,-4.20984 0.51079,-6.50836 1.33333,-6 0.73334,0.45323 1.33334,3.15323 1.33334,6 0,2.84678 -0.6,5.54678 -1.33334,6 -0.82254,0.50836 -1.33333,-1.79016 -1.33333,-6 z m -13.33333,-7.25464 c 0,-3.34328 0.6,-6.07869 1.33333,-6.07869 0.73333,0 1.33333,2.36459 1.33333,5.25464 0,2.89005 -0.6,5.62547 -1.33333,6.07869 -0.81441,0.50334 -1.33333,-1.5417 -1.33333,-5.25464 z M -252.66131,118.906 c 0,-1.18631 14.19992,-9.6143 16.19865,-9.6143 2.52015,0 -0.3493,2.55715 -7.38913,6.58494 -7.50753,4.29537 -8.80952,4.74309 -8.80952,3.02936 z m 26.66667,-15.56338 c 0,-1.17629 63.65327,-38.050917 65.68379,-38.050917 3.82802,0 -2.93197,4.44944 -31.34762,20.63308 -28.94295,16.483957 -34.33617,19.219797 -34.33617,17.417837 z m -213.6986,-19.717583 c 0.84655,-10.276734 1.47374,-10.801587 1.59334,-1.333334 0.0579,4.583334 -0.40666,8.333334 -1.03235,8.333334 -0.62568,0 -0.87812,-3.15 -0.56099,-7 z m 201.2179,-9.925134 c -1.20913,-1.209133 -1.06473,-59.0792 0.14736,-59.054453 3.82316,0.078 4.35631,2.778627 4.5626,23.11076 0.26319,25.940053 0.77939,27.07596 10.03954,22.0922 18.05808,-9.718733 45.26601,-25.816453 46.7312,-27.648773 1.137,-1.421894 1.66666,-7.48116 1.66666,-19.066134 V -3.84835 l -4.0945,-3.20444 -4.09452,-3.20444 13.62305,-8.252547 c 7.49268,-4.538906 13.98521,-7.879586 14.42785,-7.42376 0.44263,0.45584 -0.58168,1.818 -2.27627,3.027014 -11.61048,8.28368 -12.10742,9.875386 -12.19421,39.05768 l -0.0581,19.526133 -33,19.01188 c -18.15,10.456533 -33.36631,19.203467 -33.81403,19.437627 -0.44772,0.23416 -1.19772,0.042 -1.66667,-0.426894 z m 14.05396,-59.128013 c 0.55231,-1.65692 6.55872,-5.423 30.0934,-18.86884 4.76372,-2.7216 6.99719,-3.4261333 6.9912,-2.2052933 -0.008,1.62252 -4.22372,4.2417466 -29.84698,18.5438003 -4.7222,2.635773 -7.6092,3.645093 -7.23762,2.530333 z"
         id="path5562"
         inkscape:connector-curvature="0" />
    </g>
  </g>
</svg>
