<?xml version="1.0" encoding="UTF-8" standalone="no"?>
<!-- Created with Inkscape (http://www.inkscape.org/) -->

<svg
   xmlns:dc="http://purl.org/dc/elements/1.1/"
   xmlns:cc="http://creativecommons.org/ns#"
   xmlns:rdf="http://www.w3.org/1999/02/22-rdf-syntax-ns#"
   xmlns:svg="http://www.w3.org/2000/svg"
   xmlns="http://www.w3.org/2000/svg"
   xmlns:sodipodi="http://sodipodi.sourceforge.net/DTD/sodipodi-0.dtd"
   xmlns:inkscape="http://www.inkscape.org/namespaces/inkscape"
   width="64px"
   height="64px"
   viewBox="0 0 64 64"
   version="1.1"
   id="SVGRoot"
   inkscape:version="0.92.5 (2060ec1f9f, 2020-04-08)"
   sodipodi:docname="break.svg">
  <defs
     id="defs815" />
  <sodipodi:namedview
     id="base"
     pagecolor="#ffffff"
     bordercolor="#666666"
     borderopacity="1.0"
     inkscape:pageopacity="0.0"
     inkscape:pageshadow="2"
     inkscape:zoom="5.6568542"
     inkscape:cx="-11.198686"
     inkscape:cy="68.552796"
     inkscape:document-units="px"
     inkscape:current-layer="layer1"
     showgrid="false"
     inkscape:window-width="2560"
     inkscape:window-height="1373"
     inkscape:window-x="1920"
     inkscape:window-y="0"
     inkscape:window-maximized="1"
     inkscape:grid-bbox="true" />
  <metadata
     id="metadata818">
    <rdf:RDF>
      <cc:Work
         rdf:about="">
        <dc:format>image/svg+xml</dc:format>
        <dc:type
           rdf:resource="http://purl.org/dc/dcmitype/StillImage" />
        <dc:title></dc:title>
      </cc:Work>
    </rdf:RDF>
  </metadata>
  <g
     inkscape:label="Layer 1"
     inkscape:groupmode="layer"
     id="layer1">
    <g
       id="g1665"
       transform="matrix(0.16561814,0,0,0.21713056,59.481206,43.257468)">
      <path
         style="fill:#d7cdb4;stroke-width:1.33333337"
         d="m -190.18567,83.20452 -25.98103,-15.185573 -21.22412,-0.05107 c -11.67325,-0.02813 -24.93836,-0.69796 -29.478,-1.488493 -7.53931,-1.31292 -8.92475,-2.11528 -16.00263,-9.267814 l -7.74874,-7.83044 3.84661,-5.550666 c 2.11564,-3.052867 4.76767,-5.832467 5.89341,-6.176907 7.57215,-2.316773 7.56707,-2.32092 -27.40687,-22.354613 -19.00048,-10.8838137 -35.60862,-20.701387 -36.90696,-21.8168403 -2.1868,-1.8787467 -2.35436,-5.8778937 -2.2754,-54.3078137 l 0.0852,-52.27972 14.2754,-5.03102 c 7.85146,-2.76707 14.54666,-5.25835 14.87821,-5.53619 0.33155,-0.27783 -8.2972,-9.42003 -19.175,-20.316 -19.57521,-19.60789 -19.76863,-19.85989 -18.87964,-24.59859 0.84177,-4.48704 1.37613,-4.91966 8.50833,-6.88844 4.18559,-1.15538 11.45647,-3.22409 16.15751,-4.59713 l 8.54735,-2.49643 23.79338,23.57631 c 22.56693,22.36105 24.32565,23.79393 34.11932,27.79799 l 10.32593,4.22166 3.55127,-3.36056 c 1.9532,-1.84832 13.0532,-14.06822 24.66667,-27.15537 l 21.1154,-23.7948 21.33333,-8.53528 21.33333,-8.53529 13.33333,1.14672 c 7.33334,0.6307 17.07183,1.48826 21.64108,1.9057 l 8.30776,0.75899 20.21523,22.22995 c 11.118373,12.22646 20.622679,22.39421 21.120692,22.59498 0.498014,0.20078 3.544387,-8.91422 6.769733,-20.25556 l 5.864254,-20.62058 13.030053,-3.17498 13.030053,-3.17497 2.883186,3.06903 2.8832,3.06901 -6.368826,22.36151 c -3.502854,12.29882 -6.626534,23.26248 -6.94152,24.36365 -0.479867,1.6776 0.789346,1.89373 7.829533,1.33333 l 8.40228,-0.66888 23.5526657,35.33334 C 10.327667,-81.667533 17.562653,-71.90872 21.38596,-69.416667 l 5.113999,3.333334 -1.999999,26.450146 c -1.940254,25.659987 -2.099574,26.519907 -5.333334,28.78468 -1.833333,1.2840003 -43.533332,25.95156 -92.666664,54.816827 -49.133332,28.865267 -89.641862,52.91868 -90.018972,53.452027 -0.37711,0.53336 -12.3771,-5.86376 -26.66666,-14.215827 z"
         id="path1683"
         inkscape:connector-curvature="0" />
      <path
         style="fill:#b1aa99;stroke-width:1.33333337"
         d="m -186.1667,85.09216 c -11.36667,-6.62004 -25.16667,-14.476747 -30.66667,-17.459347 -5.5,-2.9826 -10.69165,-5.963933 -11.537,-6.625173 -0.94497,-0.739173 -1.72144,-0.648987 -2.01581,0.234133 -0.26335,0.790027 -6.57557,2.53148 -14.02719,3.86988 -19.85945,3.567 -26.34069,2.289534 -37.32897,-7.35764 -9.10109,-7.99032 -9.15463,-8.2782 -3.01201,-16.198226 l 2.3481,-3.027534 3.78644,4.51988 c 3.7501,4.476494 3.92295,4.528734 18.00682,5.44248 7.8212,0.50744 16.4013,0.513454 19.06689,0.01333 5.72893,-1.074747 5.66257,-1.137827 -10.28905,-9.779427 -9.48979,-5.140987 -10.73942,-5.487307 -15.27803,-4.234133 -4.84949,1.339013 -5.64327,0.958826 -41.99821,-20.115614 L -346.1667,-7.1055867 V -60.22548 -113.34537 l 19.3899,-0.36899 19.3899,-0.36897 -24.8281,-24.76303 c -24.62747,-24.56292 -24.82095,-24.80117 -23.94276,-29.48232 l 0.88534,-4.71929 15.8091,-4.37887 15.8091,-4.37887 24.85607,23.86119 c 22.04288,21.16061 25.86194,24.27177 33.74374,27.48897 4.88824,1.9953 9.62004,3.6453 10.51511,3.66667 0.89508,0.0213 6.29508,-5.26063 12,-11.73779 27.73656,-31.49109 37.02395,-41.55173 38.30735,-41.49674 0.76922,0.0329 5.89386,2.7067 11.38809,5.94168 l 9.98949,5.88177 9.58427,-5.16969 c 6.88529,-3.71387 12.51065,-5.61328 19.97604,-6.74491 8.04408,-1.21935 12.6587,-2.87841 20.42622,-7.34371 5.51896,-3.17266 10.6564,-5.96122 11.41655,-6.19678 0.76015,-0.23555 10.93515,9.99672 22.611106,22.73838 11.675973,12.74166 21.41644,22.60444 21.645493,21.91731 0.22904,-0.68715 2.99204,-10.21215 6.139986,-21.16667 l 5.723534,-19.9173 12.972186,-3.23967 12.9722,-3.23967 2.721826,2.72182 2.721813,2.72181 -6.778453,23.445 c -3.728133,12.89475 -6.778439,24.0552 -6.778439,24.80101 0,0.85344 3.088626,1.08176 8.333333,0.61604 l 8.333333,-0.73998 25.6939857,38.87973 25.6939863,38.879733 -0.360654,26.88552 -0.360653,26.88552 -41.333332,24.36844 C -138.26721,81.743093 -164.67154,97.244867 -165.0675,97.189307 c -0.2379,-0.03333 -9.73254,-5.477094 -21.0992,-12.097147 z m 82.03426,-96.59312 c -2.18114,-1.137333 -5.9202,-3.275813 -8.30901,-4.752173 -2.38881,-1.476374 -5.10423,-2.245934 -6.03427,-1.710147 -0.93004,0.535773 -1.24613,0.483093 -0.70241,-0.117067 1.11957,-1.235826 -6.89209,-4.080333 -26.32191,-9.345493 -7.33333,-1.987213 -14.37518,-4.148093 -15.64857,-4.80196 -1.27339,-0.65388 -10.45135,-1.188867 -20.39545,-1.188867 h -18.08023 l -10.60453,6.116694 c -5.83251,3.364186 -10.60455,6.275333 -10.60455,6.46924 0,0.193893 13.05,1.083506 29,1.976906 31.0582,1.739654 53.1282,4.067374 76.33333,8.050867 3.3,0.566493 8.1,1.1064667 10.66667,1.1999333 l 4.66667,0.1699334 z m -156.94091,-39.328307 c 12.75164,-4.406946 30.31576,-12.956066 29.10521,-14.166613 -1.08113,-1.081133 -30.97692,9.947147 -39.19856,14.459987 -8.96996,4.9236 -12.77009,7.94488 -7.33333,5.83036 1.28333,-0.499134 9.12533,-3.254814 17.42668,-6.123734 z m 240.239977,-8.493586 C -9.4667062,-61.1008 3.5967201,-62.978267 8.1964666,-63.495 c 4.5997334,-0.516747 8.6093734,-1.337907 8.9103064,-1.824827 0.300933,-0.486906 -8.8819464,-4.007746 -20.406386,-7.82408 l -20.953519,-6.9388 -15.956787,4.48584 c -8.776226,2.467214 -18.036319,5.033667 -20.577972,5.703214 l -4.6212,1.217373 10.621199,6.165533 c 5.841654,3.39104 11.221187,6.222907 11.95452,6.293027 0.733333,0.07013 10.633333,-1.327187 21.999999,-3.105133 z M -260.3025,-123.86361 c 0.37855,-0.6125 -1.53604,-2.16939 -4.25464,-3.45978 l -4.94289,-2.34616 3.23241,3.45978 c 3.39275,3.63137 4.82312,4.19396 5.96512,2.34616 z m 177.357862,-5.07723 c 1.30024,-3.38837 0.13572,-3.52419 -4.738359,-0.55267 l -4.483707,2.73354 4.19068,0.005 c 2.660667,0.003 4.497626,-0.79489 5.031386,-2.18585 z"
         id="path1681"
         inkscape:connector-curvature="0" />
      <path
         style="fill:#a3946a;stroke-width:1.33333337"
         d="M -198.33149,78.025427 -231.16294,59.25 l -1.83521,-5.991213 c -1.73708,-5.670854 -2.51254,-6.363747 -14.50188,-12.95792 -11.6676,-6.417214 -13.1925,-6.912067 -19.33334,-6.273934 -6.40573,0.665667 -7.37118,0.28364 -24.66666,-9.760546 -9.9,-5.749334 -26.24531,-15.2300137 -36.32292,-21.068187 L -346.14587,-7.4166667 -346.15654,-59.75 c -0.005,-28.783333 0.1837,-52.33333 0.42094,-52.33333 0.23724,0 6.08724,6.44478 13,14.321757 6.91276,7.87696 18.26865,20.647826 25.23532,28.37968 6.96666,7.731866 15.16101,16.90832 18.20965,20.39212 l 5.54297,6.334186 18.70675,-6.35304 c 10.2887,-3.494173 18.9472,-6.065413 19.24108,-5.713866 0.29389,0.351533 5.71736,8.210053 12.05216,17.463373 l 11.51781,16.824227 7.69812,0.79888 c 4.23396,0.439386 16.99812,1.16904 28.36479,1.621466 11.63095,0.462947 34.84361,2.813787 53.09246,5.376907 17.83419,2.504867 33.614346,4.5543067 35.067026,4.5543067 1.558494,0 13.360133,-9.7650267 28.788706,-23.8206397 l 26.147453,-23.820627 16.118839,-2.29104 c 15.096427,-2.145707 35.4340126,-5.258173 43.785506,-6.700933 L 20.49996,-65.35 v 26.5368 26.536787 l -7.666667,4.5927597 C -13.638759,8.1745733 -152.13429,89.59696 -158.1667,92.84832 l -7.33334,3.95252 z m 55.42125,-106.046854 -21.41018,-6.28572 -17.92315,0.602054 -17.92313,0.60204 -11.33333,-16.418854 c -6.23334,-9.030373 -11.68754,-16.931346 -12.12046,-17.557706 -0.4329,-0.626374 -9.08454,1.591546 -19.22586,4.928706 -10.14132,3.337174 -18.61007,6.067574 -18.81946,6.067574 -0.20938,0 -6.85774,-9.416614 -14.77413,-20.9258 -13.21156,-19.207547 -17.10284,-23.629137 -47.39033,-53.848757 -31.95323,-31.88162 -32.96993,-33.05792 -32.14367,-37.18922 0.99276,-4.96384 1.80346,-5.38117 19.66354,-10.12268 l 13.18962,-3.50157 19.47704,19.27473 c 33.00161,32.65884 40.07889,38.9638 43.94569,39.15003 1.94224,0.0936 6.83135,1.48333 10.86468,3.08844 4.03334,1.60511 9.58842,3.75375 12.34462,4.77476 l 5.01128,1.8564 24.20829,-26.94483 c 21.82759,-24.295 25.20292,-27.49278 34.32205,-32.51658 7.60809,-4.19135 12.59124,-5.92124 20.11376,-6.98248 l 10,-1.41075 4.66667,5.02449 c 2.56666,2.76347 10.06282,11.00558 16.65813,18.31582 25.530279,28.29776 28.736039,31.29133 33.509226,31.29133 4.05008,0 4.513773,-0.44653 5.88452,-5.66667 0.8184,-3.11666 3.803106,-13.16666 6.63268,-22.33333 2.829573,-9.16667 6.370879,-20.89031 7.869559,-26.05252 l 2.72488,-9.38585 12.28224,-2.99544 12.28224,-2.99543 2.958,3.04795 2.957986,3.04796 -5.223906,18 c -6.050067,20.84672 -10.466253,38.66666 -9.582467,38.66666 0.337494,0 4.522547,-2.186 9.30012,-4.85777 9.123866,-5.10235 8.886653,-5.12393 12.475066,1.13515 1.39196,2.42793 0.961267,2.60977 -15.394946,6.49969 -3.666667,0.87201 -7.19268,2.05993 -7.835586,2.6398 -0.642907,0.57987 4.877559,11.42783 12.267706,24.10657 7.390146,12.67875 13.301933,23.18695 13.137306,23.351577 -0.164613,0.164613 -9.465693,2.98192 -20.669053,6.260653 l -20.369732,5.961347 -8.931987,8.575213 c -4.912586,4.716373 -12.193733,11.519547 -16.180319,15.11816 -3.986574,3.598627 -10.286573,9.381213 -14.000003,12.850213 -3.71341,3.469 -7.24452,6.319 -7.8469,6.333334 -0.60238,0.01427 -1.99524,0.926066 -3.09524,2.026066 -2.56463,2.564627 -1.50992,2.747534 -26.55306,-4.60476 z m -39.71047,-27.39524 -0.84531,-10 4.98299,-0.0976 c 2.74065,-0.0536 9.18299,-0.0208 14.31633,0.07307 9.25436,0.169147 9.37837,0.1244 14.65716,-5.290293 6.1735,-6.332427 6.17294,-6.333214 -7.66744,-10.701307 l -9.22068,-2.910093 -15.55119,7.066533 c -15.13073,6.875493 -18.88452,9.379373 -18.88452,12.596493 0,1.377827 17.18122,19.2316 18.52899,19.254294 0.29093,0.0053 0.14859,-4.491094 -0.31633,-9.991094 z"
         id="path1679"
         inkscape:connector-curvature="0" />
      <path
         style="fill:#968558;stroke-width:1.33333337"
         d="M -163.50004,39.81924 V -16.3906 l 7.66667,0.915 c 11.42157,1.36312 53.92808,7.34636 57.009293,8.0246667 2.687626,0.5916533 4.869253,-1.2431334 42.473279,-35.7208267 l 13.149253,-12.056027 11.517413,-1.75472 C -25.349546,-57.9476 -11.499066,-59.9774 -0.90529311,-61.49316 9.6884933,-63.00892 18.838493,-64.5472 19.42804,-64.91156 c 0.58956,-0.364373 1.07192,11.294067 1.07192,25.907627 v 26.570106 L -15.833373,8.9587333 C -35.816705,20.724653 -74.366704,43.477467 -101.50004,59.52056 c -27.13333,16.043093 -52.18333,30.820587 -55.66666,32.838893 l -6.33334,3.669627 z m -61.33333,22.831187 c -5.2388,-3.099534 -6.1528,-4.33096 -7.2044,-9.70644 -0.71986,-3.67972 -2.06088,-6.430014 -3.33333,-6.836294 -1.17092,-0.373866 -7.52893,-3.584106 -14.12893,-7.133853 -11.05603,-5.946373 -12.4261,-6.36216 -17.41651,-5.285627 -6.36772,1.373654 -2.75585,3.111774 -46.18528,-22.225546 l -31.60178,-18.4369337 -0.93036,-6.2040663 c -0.9549,-6.36772 0.18541,-51.068307 1.48565,-58.238334 1.20388,-6.63864 1.73239,-7.352133 7.28872,-9.839773 2.94127,-1.31684 5.08487,-2.657147 4.76357,-2.97844 -0.3213,-0.321293 1.63136,-0.547133 4.33924,-0.50184 5.37372,0.08987 6.23246,0.877493 31.60308,28.98672 6.4534,7.15 12.09049,12.992253 12.52689,12.9828 0.43639,-0.0093 4.58119,-1.204573 9.21066,-2.6558 13.88194,-4.351667 14.2005,-4.332453 18.55262,1.11872 2.14622,2.688187 5.62718,7.887613 7.7355,11.55428 2.10832,3.666667 4.36336,7.033747 5.0112,7.4824 0.64784,0.448667 1.12665,1.198667 1.06401,1.666667 -0.0627,0.468013 -0.0389,1.150933 0.0528,1.5176 0.0917,0.366666 0.27835,1.116666 0.41484,1.666666 0.13651,0.55 2.09417,4.717334 4.35039,9.260734 2.2562,4.543413 3.89377,8.4691597 3.63902,8.723893 -0.25473,0.2547467 0.74896,4.3374133 2.23043,9.0726 3.12003,9.972467 4.7878,33.04888 2.88672,39.942773 -1.20729,4.37804 -0.91843,5.103574 4.67051,11.730907 3.27656,3.885333 5.73629,7.24916 5.46608,7.47516 -0.27023,0.226 -3.19132,-1.186533 -6.49132,-3.138973 z M -108.65236,-39.75 c 2.0819,-7.15 3.78194,-13.3 3.77784,-13.666667 -0.004,-0.366666 -5.05345,-3.619666 -11.22081,-7.228893 -6.84841,-4.007787 -11.50307,-7.640933 -11.95752,-9.333333 -1.64143,-6.11276 -0.78809,-27.555547 1.25372,-31.503987 1.29664,-2.50741 1.50384,-3.93379 0.57143,-3.93379 -0.80455,0 -0.51995,-0.94285 0.63242,-2.09524 1.15239,-1.15237 2.11864,-2.80237 2.14724,-3.66666 0.10614,-3.20606 11.96608,-10.40166 18.9689,-11.50864 3.79114,-0.59931 7.51237,-0.91052 8.269383,-0.6916 0.757013,0.21893 3.307173,0.73113 5.667026,1.13822 3.84044,0.66251 4.494974,0.28988 6.237867,-3.55128 1.872426,-4.12666 6.998333,-20.85878 15.343879,-50.086 2.166387,-7.58698 4.131347,-13.89973 4.366587,-14.02833 0.235227,-0.12867 5.807186,-1.57793 12.38212,-3.22073 l 11.954439,-2.98694 2.90492,3.01527 2.90492,3.01527 -5.1252,17.33333 c -2.818866,9.53333 -6.734653,23.77868 -8.701759,31.65633 l -3.57656,14.32299 2.91732,18.29733 c 1.604533,10.063537 3.432599,18.91819 4.062373,19.677003 0.62976,0.758827 1.183893,1.835974 1.231386,2.393654 0.04747,0.55768 1.00204,2.784693 2.1212,4.948906 2.488427,4.81208 2.114627,5.076587 -13.228813,9.360974 l -10.581333,2.954666 -22.988372,21.19408 C -100.96136,-36.287333 -111.56072,-26.75 -111.87188,-26.75 c -0.31117,0 1.13762,-5.85 3.21952,-13 z m -92.4271,4 c -1.096,-1.283333 -6.67773,-9.083333 -12.40384,-17.333333 -5.72612,-8.25 -10.9998,-15 -11.71928,-15 -0.71949,0 -5.58075,1.560866 -10.8028,3.468573 -5.22207,1.90772 -13.19095,4.512267 -17.70864,5.787867 l -8.21399,2.31928 -14.96625,-21.84024 c -14.22389,-20.75692 -16.5812,-23.418507 -47.52425,-53.658757 l -32.55801,-31.81851 1.14633,-4.46244 c 1.12415,-4.37612 1.44884,-4.54809 16.78631,-8.89063 l 15.63998,-4.42818 30.07653,29.42818 c 24.83535,24.3 30.73262,29.42819 33.8415,29.42819 2.07074,0 9.2833,2.20445 16.02792,4.89879 l 12.26294,4.89878 2.18082,-2.7546 c 1.19945,-1.51502 12.37605,-13.98414 24.83688,-27.70916 22.09645,-24.33821 25.74426,-27.4428 39.67727,-33.76868 0.55,-0.2497 1,20.03936 1,45.08683 v 45.54084 l -17.95403,8.57204 c -10.94448,5.225373 -18.54694,9.679893 -19.47268,11.409653 -1.37783,2.574507 -0.11694,4.243374 13.59896,17.998227 l 15.11759,15.160613 h -13.43826 c -11.15033,0 -13.77755,-0.397266 -15.431,-2.333333 z m 47.88625,-18.666667 c 0.59433,-10.79948 0.94812,-11.988546 4.75976,-15.997173 l 4.11771,-4.330493 3.0631,7.52896 3.06312,7.52896 -7.43468,8.4682 c -4.08906,4.65752 -7.60936,8.468213 -7.82288,8.468213 -0.2135,0 -0.0993,-5.25 0.25387,-11.666667 z"
         id="path1677"
         inkscape:connector-curvature="0" />
      <path
         style="fill:#897a52;stroke-width:1.33333337"
         d="m -162.70138,76.916667 c -0.5134,-9.716667 -0.51235,-34.57764 0.003,-55.246614 l 0.93583,-37.57996 6.79825,0.758867 c 3.73903,0.417387 18.49011,2.41596 32.78018,4.44128 l 25.981929,3.6823867 4.684734,-4.0711197 c 2.5766,-2.239107 10.084733,-8.97988 16.684733,-14.97948 6.599999,-5.9996 14.699999,-13.2552 17.999999,-16.123534 3.3,-2.868333 6.3052,-5.51516 6.678227,-5.881826 6.290839,-6.18364 8.663973,-7.280347 19.020172,-8.789827 6.032547,-0.87928 19.559253,-2.8512 30.0593329,-4.382027 10.500093,-1.53084 19.6500931,-3.128826 20.3333331,-3.551093 0.75152,-0.464467 1.242266,9.679733 1.242266,25.678493 V -12.68152 L 0.16693353,-0.77356 C -11.016399,5.7758267 -33.666399,19.192173 -50.166398,29.040547 -88.773197,52.083667 -160.89085,94.583333 -161.38618,94.583333 c -0.20995,0 -0.80179,-7.95 -1.3152,-17.666666 z M -224.1667,63.181613 c -4.94279,-2.919653 -8.46252,-8.012333 -8.60653,-12.452666 -0.0543,-1.67488 8.692,7.33472 13.01546,13.407266 2.09278,2.939414 2.23579,2.970374 -4.40893,-0.9546 z m -32.77359,-28.64024 c -3.93812,-2.02624 -5.70989,-2.21844 -10.12333,-1.098186 -5.29556,1.34416 -5.63463,1.19312 -33.48688,-14.91612 C -324.16648,4.868 -328.91102,1.61224 -330.07787,-1.7349733 c -0.76463,-2.1934 -1.09367,-4.46784 -0.73121,-5.0543067 0.36245,-0.5864667 -0.0472,-1.3017067 -0.91044,-1.58944 -1.01284,-0.3376133 -1.84331,-5.771413 -2.34164,-15.321693 -0.42471,-8.139187 -0.3222,-14.519614 0.2278,-14.178707 0.55,0.340907 1,-0.35076 1,-1.53704 0,-3.005067 8.08504,-12.772 9.73069,-11.75492 0.76767,0.47444 0.93776,0.16932 0.39508,-0.708733 -0.58173,-0.94128 0.41053,-2.060227 2.54747,-2.87268 4.31273,-1.639707 17.99342,-1.76452 17.99342,-0.164174 0,0.641667 1.61312,1.166667 3.5847,1.166667 2.53979,0 5.12393,1.700347 8.86531,5.833333 3.04059,3.35884 6.24262,5.670774 7.54842,5.450107 1.32369,-0.22368 4.31726,1.996613 7.19081,5.333333 2.70767,3.144107 5.70588,6.61656 6.66269,7.71656 3.37907,3.88476 11.1424,18.26684 14.07975,26.083667 3.22799,8.5902533 5.24027,32.211053 3.19097,37.456733 -1.11444,2.852707 -1.15757,2.855774 -5.89624,0.41764 z m 145.93904,-64.95804 c 0.37317,-1.283333 1.99613,-6.762626 3.60657,-12.1762 2.79815,-9.406093 2.82682,-10.01432 0.64587,-13.70636 -1.25521,-2.124906 -2.58851,-6.695626 -2.96287,-10.15712 -0.37436,-3.461506 -1.18632,-6.479133 -1.80433,-6.705813 -0.61803,-0.226693 -0.61355,-2.026693 0.009,-4 1.45932,-4.618547 3.19684,-13.933 2.86407,-15.353613 -0.1416,-0.604507 0.32053,-0.741894 1.02696,-0.305294 0.70644,0.4366 1.77131,-0.03747 2.36637,-1.053586 1.28366,-2.1918 8.783176,-6.208677 11.591643,-6.208677 1.87316,0 3.228413,-3.80566 15.431599,-43.33334 1.358387,-4.4 4.685987,-15.8 7.394667,-25.33333 2.70868,-9.53333 5.41968,-18.22565 6.02444,-19.31625 0.604773,-1.09062 6.396079,-3.29114 12.869586,-4.89004 l 11.770013,-2.90711 2.839693,2.89003 2.839693,2.89004 -8.568813,29.33333 c -4.712839,16.13333 -8.580226,31.4452 -8.594173,34.02636 -0.02333,4.31587 6.14044,44.552027 7.571427,49.425213 0.488373,1.663174 -1.718227,2.759587 -10.27136,5.103614 -11.612773,3.18252 -12.631213,3.970346 -48.704435,37.67564 -7.41672,6.929866 -9.00754,7.751146 -7.94658,4.102506 z M -211.50003,-50.75 c -6.69328,-9.533333 -12.88144,-17.306627 -13.75147,-17.273987 -0.87003,0.03267 -9.35561,2.65624 -18.85684,5.830227 l -17.27499,5.770893 -2.153,-2.83024 c -1.18414,-1.556626 -7.92516,-11.278853 -14.98002,-21.60496 -11.68775,-17.107173 -15.74035,-21.631053 -45.62743,-50.933343 -32.59685,-31.95906 -32.7934,-32.18552 -31.67605,-36.4975 1.08973,-4.20544 1.5938,-4.47368 16.38872,-8.72125 8.39543,-2.41031 15.69473,-4.2378 16.22068,-4.06111 0.52593,0.1767 14.07608,13.37127 30.11142,29.32127 24.38359,24.25381 29.78075,29 32.97754,29 2.10229,0 9.48444,2.19388 16.40477,4.87528 l 12.58241,4.87529 8.15046,-9.17368 c 32.36305,-36.42592 41.24012,-45.2962 50.31399,-50.27552 l 9.1698,-5.03194 v 45.09421 45.094213 l -11,5.512387 c -6.04999,3.0318 -14.39077,6.994573 -18.53505,8.80616 -12.28732,5.37112 -11.98818,6.650507 5.70326,24.39228 l 15.12163,15.164653 h -13.56011 -13.56012 z"
         id="path1675"
         inkscape:connector-curvature="0" />
      <path
         style="fill:#876b38;stroke-width:1.33333337"
         d="M -162.1667,57.746973 V 20.816787 l 4.31245,-6.783387 c 5.19344,-8.1691867 4.67152,-7.4571333 13.03523,-17.7834 3.71224,-4.5833333 7.50258,-8.333333 8.42297,-8.333333 2.3628,0 32.85041,3.9167197 37.011333,4.754813 2.866827,0.57744 5.3136,-0.9912667 14.502546,-9.298027 10.868733,-9.825293 11.104707,-9.95468 14.087426,-7.724733 1.66844,1.247373 2.810027,2.500213 2.53684,2.784107 -0.273173,0.283893 0.634067,2.104146 2.016094,4.045026 1.382013,1.940867 2.91104,5.908587 3.397813,8.8171603 0.486787,2.9085734 1.21336,6.18832 1.6146,7.28832 1.70528,4.6749067 -0.718467,26.4704797 -3.97328,35.7298937 -1.338253,3.807093 -4.947667,6.419293 -26.921399,19.483506 -27.128773,16.12908 -62.436083,36.80952 -67.164973,39.340347 l -2.87765,1.54008 z m -68.36111,-1.302533 c -0.53473,-0.53472 -0.97222,-1.892213 -0.97222,-3.016667 0,-1.500786 0.39444,-1.65 1.48333,-0.561106 0.81583,0.815826 1.25333,2.173333 0.97223,3.016666 -0.28112,0.843334 -0.94862,1.095827 -1.48334,0.561107 z m -56.61122,-32.061653 c -15.44775,-7.658307 -24.67191,-18.273307 -26.62508,-30.6396803 -0.44821,-2.83788 -1.30788,-5.4863597 -1.91035,-5.8855067 -1.48168,-0.981653 1.26734,-10.70564 3.84694,-13.6076 1.14077,-1.283333 1.56645,-2.333333 0.94597,-2.333333 -0.62049,0 0.0365,-0.88092 1.46001,-1.9576 3.66271,-2.770334 10.3632,-2.497654 15.96696,0.6498 2.63628,1.480706 5.44724,2.288 6.24657,1.793986 0.79934,-0.494013 1.11375,-0.34876 0.69871,0.322787 -0.41504,0.67156 1.57497,3.87284 4.42224,7.113973 11.79119,13.4222403 16.30168,30.95748 10.58113,41.135814 -3.78222,6.729586 -7.35918,7.509213 -15.6331,3.40736 z m 175.63899,-52.88176 c 0,-0.35024 1.16315,-4.45 2.58478,-9.110574 1.42164,-4.660586 3.86009,-13.573786 5.4188,-19.80712 1.55872,-6.233333 7.06033,-25.133333 12.225809,-42 5.165494,-16.866663 11.37864,-37.566663 13.807,-46.000003 9.83712,-34.16276 12.53068,-43.0115 13.338653,-43.81948 0.465573,-0.46557 6.046653,-2.13636 12.4024,-3.71285 l 11.555893,-2.86635 2.861893,2.86602 2.861893,2.866 -7.069946,24 c -3.888467,13.2 -9.297253,32.60205 -12.01952,43.11568 l -4.949587,19.11568 4.851414,4.968317 c 2.668293,2.73256 4.439226,5.380506 3.935413,5.884306 -0.5038,0.503814 -0.26572,0.916014 0.529067,0.916014 1.27532,0 4.332706,10.677826 4.332706,15.131853 0,0.925893 -4.491693,2.988733 -10.101426,4.639147 -9.63596,2.834946 -10.932,3.722746 -28.12692,19.267106 -21.263902,19.22276 -28.438322,25.41528 -28.438322,24.546254 z m -100.03538,-22.756107 -12.32739,-17.838413 -17.1536,5.838413 c -9.43449,3.211133 -17.92478,5.838413 -18.86734,5.838413 -1.91756,0 -7.21312,-6.913466 -18.89412,-24.666666 -6.10056,-9.271867 -15.83166,-19.961237 -42.80336,-47.018467 -33.96196,-34.06963 -34.88396,-35.13496 -34.0284,-39.31815 0.86572,-4.23293 1.12631,-4.36612 16.78179,-8.57714 l 15.9024,-4.27746 29.08653,28.92895 c 24.47881,24.34619 29.76656,28.9882 33.37936,29.30305 2.36106,0.20576 5.49285,0.9242 6.95952,1.59651 5.68914,2.60788 20.27934,8.02937 21.60845,8.02937 0.76957,0 4.82555,-3.90262 9.01327,-8.6725 4.18772,-4.76988 8.16098,-8.33447 8.82949,-7.92131 0.66849,0.41316 1.21545,5.46232 1.21545,11.22037 0,10.18107 -2.13857,19.452043 -7.12226,30.875883 l -2.10962,4.835774 23.94927,24.196106 c 13.17211,13.307867 23.94928,24.481774 23.94928,24.830894 0,0.349133 -5.63429,0.634786 -12.52067,0.634786 h -12.52066 z"
         id="path1673"
         inkscape:connector-curvature="0" />
      <path
         style="fill:#756648;stroke-width:1.33333337"
         d="M -162.1667,57.746973 V 20.816787 l 4.31245,-6.783387 c 5.19344,-8.1691867 4.67152,-7.4571333 13.03523,-17.7834 3.71224,-4.5833333 7.50258,-8.333333 8.42297,-8.333333 2.3628,0 32.85041,3.9167197 37.011333,4.754813 2.866827,0.57744 5.3136,-0.9912667 14.502546,-9.298027 10.868733,-9.825293 11.104707,-9.95468 14.087426,-7.724733 1.66844,1.247373 2.810027,2.500213 2.53684,2.784107 -0.273173,0.283893 0.634067,2.104146 2.016094,4.045026 1.382013,1.940867 2.91104,5.908587 3.397813,8.8171603 0.486787,2.9085734 1.21336,6.18832 1.6146,7.28832 1.70528,4.6749067 -0.718467,26.4704797 -3.97328,35.7298937 -1.338253,3.807093 -4.947667,6.419293 -26.921399,19.483506 -27.128773,16.12908 -62.436083,36.80952 -67.164973,39.340347 l -2.87765,1.54008 z m -68.36111,-1.302533 c -0.53473,-0.53472 -0.97222,-1.892213 -0.97222,-3.016667 0,-1.500786 0.39444,-1.65 1.48333,-0.561106 0.81583,0.815826 1.25333,2.173333 0.97223,3.016666 -0.28112,0.843334 -0.94862,1.095827 -1.48334,0.561107 z M -292.39983,8.7718667 c -7.74943,-5.16724 -12.04783,-17.0504267 -7.72953,-21.3687197 2.63368,-2.633694 3.75877,-2.671814 8.37655,-0.283867 4.91027,2.5392 9.70302,11.3459867 9.08118,16.6868267 -0.2701,2.31972 -0.71698,4.36336 -0.99307,4.5414133 -0.27611,0.1780533 -1.402,0.9814533 -2.502,1.785347 -1.52568,1.114986 -3.00392,0.792213 -6.23313,-1.3610003 z m 80.40441,-60.6771997 -11.82872,-17.152814 -5.50461,1.76656 c -3.02754,0.971614 -10.78348,3.590947 -17.23544,5.820747 -6.45195,2.2298 -12.47388,4.054173 -13.38206,4.054173 -1.85788,0 -7.24234,-7.052866 -18.83162,-24.666666 -6.10056,-9.271867 -15.83166,-19.961237 -42.80336,-47.018467 -33.96196,-34.06963 -34.88396,-35.13496 -34.0284,-39.31815 0.86572,-4.23293 1.12631,-4.36612 16.78179,-8.57714 l 15.9024,-4.27746 29.08653,28.92895 c 24.47881,24.34619 29.76656,28.9882 33.37936,29.30305 2.36106,0.20576 5.49285,0.9242 6.95952,1.59651 5.68914,2.60788 20.27934,8.02937 21.60845,8.02937 0.76957,0 4.85561,-3.93688 9.08009,-8.74862 5.03802,-5.73838 8.13236,-8.29714 8.99304,-7.43646 0.76287,0.76287 1.06303,6.51842 0.71702,13.74863 -0.45899,9.59087 -1.45768,14.57201 -4.36472,21.769787 -2.07327,5.133333 -4.28092,9.669906 -4.90592,10.08128 -0.62499,0.411373 8.29966,10.011373 19.83256,21.333333 11.5329,11.32196 22.38813,22.235387 24.12272,24.252053 l 3.15381,3.666667 -12.45187,-0.0013 -12.45185,-0.0013 z m 131.623489,-6.123987 c 0.476187,-1.240907 4.42004,-14.660707 8.764133,-29.821773 9.388547,-32.766377 21.465986,-74.437617 26.869239,-92.707857 2.13768,-7.22825 3.555454,-13.67825 3.150587,-14.33333 -1.496747,-2.42179 1.71344,-1.09231 4.36792,1.80895 l 2.74484,3 -7.0538,24 c -3.879587,13.2 -9.281106,32.60205 -12.003373,43.11568 l -4.949587,19.11568 4.851414,4.968317 c 2.668293,2.73256 4.439226,5.380506 3.935413,5.884306 -0.5038,0.503814 -0.26572,0.916014 0.529067,0.916014 1.278053,0 4.332706,10.681293 4.332706,15.15028 0,0.959386 -4.53132,2.99504 -10.516653,4.724533 -8.443333,2.439733 -11.531973,4.08676 -15.666666,8.354227 -6.301387,6.503733 -10.6562,9.21524 -9.35524,5.824973 z"
         id="path1671"
         inkscape:connector-curvature="0" />
      <path
         style="fill:#7d6434;stroke-width:1.33333337"
         d="m -136.31588,74.609907 c -3.35229,-1.35448 -8.76337,-7.883374 -7.8109,-9.424494 0.36862,-0.596466 0.0604,-1.46136 -0.68484,-1.921973 -2.68814,-1.66136 -0.80503,-23.657867 2.21516,-25.87516 0.60304,-0.44272 1.28976,-2.004947 1.52604,-3.471613 0.52089,-3.233174 5.09518,-10.350614 10.71148,-16.666667 2.2823,-2.566667 4.15922,-5.116667 4.17094,-5.666667 0.012,-0.55 0.84783,-1 1.85804,-1 1.0102,0 2.55407,-0.864333 3.43082,-1.9207463 0.87674,-1.0564134 2.54864,-1.55444 3.71532,-1.1067467 1.31805,0.5057867 1.7866,0.2725333 1.23742,-0.61604 -0.93356,-1.5105333 5.63659,-4.3564667 10.05735,-4.3564667 1.58525,0 2.18729,-0.5810266 1.59503,-1.5393466 -0.60795,-0.9836667 -0.36367,-1.17612003 0.67668,-0.5331467 0.89542,0.5534 1.3043,1.3299467 0.90861,1.72564 -0.39571,0.3956933 1.17945,1.6856133 3.500333,2.86648 11.89328,6.05132 12.424386,25.340813 1.252253,45.480373 -4.225266,7.616694 -6.922216,10.79624 -8.388756,9.889867 -0.63532,-0.392653 -1.15514,-0.0932 -1.15514,0.665533 0,2.051667 -19.98182,13.36788 -22.14132,12.5392 -1.02228,-0.39228 -1.85868,-0.04904 -1.85868,0.762747 0,1.709867 -0.92256,1.742293 -4.81584,0.169227 z M -292.39983,8.7718667 c -7.74943,-5.16724 -12.04783,-17.0504267 -7.72953,-21.3687197 2.63368,-2.633694 3.75877,-2.671814 8.37655,-0.283867 4.91027,2.5392 9.70302,11.3459867 9.08118,16.6868267 -0.2701,2.31972 -0.71698,4.36336 -0.99307,4.5414133 -0.27611,0.1780533 -1.402,0.9814533 -2.502,1.785347 -1.52568,1.114986 -3.00392,0.792213 -6.23313,-1.3610003 z m 80.41133,-60.7997067 -11.82181,-17.167893 -5.51152,1.760466 c -3.03135,0.968254 -9.33038,3.09688 -13.99784,4.730267 l -8.48631,2.9698 -52.30598,-52.29341 c -45.15204,-45.14119 -52.2209,-52.73852 -51.68387,-55.54782 0.34217,-1.7899 1.59869,-3.76246 2.79229,-4.38344 3.74604,-1.94889 27.05804,-8.27912 28.93903,-7.8582 0.98661,0.22078 12.16723,10.61987 24.84583,23.10911 12.67858,12.48925 28.45198,27.46049 35.05198,33.26944 6.6,5.80895 17.66343,16.29047 24.58539,23.29228 6.92196,7.001813 24.31633,24.580573 38.65416,39.063907 l 26.06878,26.333333 -12.65417,-0.05493 -12.65416,-0.05493 -11.8218,-17.167893 z m 131.569102,-5.823253 c 0.502294,-1.338934 4.467507,-14.838934 8.8116,-30 20.338773,-70.983157 30.611693,-105.847297 31.429506,-106.665097 0.98092,-0.98092 4.678253,2.58612 4.678253,4.51339 0,0.96471 -2.747106,11.24124 -6.10468,22.83675 -3.357573,11.59549 -7.596919,26.78272 -9.420773,33.74938 -1.823853,6.96667 -5.050626,18.66667 -7.170613,26 -6.510226,22.519817 -8.268546,31.367763 -6.626693,33.34607 1.122267,1.352253 -0.0228,3.257093 -4.941587,8.22068 -3.521279,3.553333 -7.564653,7.354453 -8.985293,8.446933 -2.357146,1.812654 -2.503133,1.77348 -1.66972,-0.448106 z"
         id="path1669"
         inkscape:connector-curvature="0" />
      <path
         style="fill:#655233;stroke-width:1.33333337"
         d="m -136.31588,74.609907 c -3.35229,-1.35448 -8.76337,-7.883374 -7.8109,-9.424494 0.36862,-0.596466 0.0604,-1.46136 -0.68484,-1.921973 -2.68814,-1.66136 -0.80503,-23.657867 2.21516,-25.87516 0.60304,-0.44272 1.28976,-2.004947 1.52604,-3.471613 0.52089,-3.233174 5.09518,-10.350614 10.71148,-16.666667 2.2823,-2.566667 4.15922,-5.116667 4.17094,-5.666667 0.012,-0.55 0.84783,-1 1.85804,-1 1.0102,0 2.55407,-0.864333 3.43082,-1.9207463 0.87674,-1.0564134 2.54864,-1.55444 3.71532,-1.1067467 1.31805,0.5057867 1.7866,0.2725333 1.23742,-0.61604 -0.93356,-1.5105333 5.63659,-4.3564667 10.05735,-4.3564667 1.58525,0 2.18729,-0.5810266 1.59503,-1.5393466 -0.60795,-0.9836667 -0.36367,-1.17612003 0.67668,-0.5331467 0.89542,0.5534 1.3043,1.3299467 0.90861,1.72564 -0.39571,0.3956933 1.17945,1.6856133 3.500333,2.86648 11.89328,6.05132 12.424386,25.340813 1.252253,45.480373 -4.225266,7.616694 -6.922216,10.79624 -8.388756,9.889867 -0.63532,-0.392653 -1.15514,-0.0932 -1.15514,0.665533 0,2.051667 -19.98182,13.36788 -22.14132,12.5392 -1.02228,-0.39228 -1.85868,-0.04904 -1.85868,0.762747 0,1.709867 -0.92256,1.742293 -4.81584,0.169227 z m 56.815842,-132.82328 c 0,-0.75384 14.325933,-50.440597 24.56624,-85.203297 2.59228,-8.8 6.957746,-23.95586 9.701026,-33.6797 2.743293,-9.72386 5.562533,-17.48814 6.265,-17.25399 4.075333,1.35845 3.736146,5.05347 -2.42432,26.40995 -3.467667,12.0214 -7.496186,26.35708 -8.952266,31.85708 -1.45608,5.5 -4.683494,17.2 -7.17204,26 -8.09056,28.60989 -9.153573,33.787023 -7.376973,35.92769 1.30664,1.574427 0.247413,3.276187 -5.808654,9.332267 -7.084293,7.084293 -8.798013,8.371826 -8.798013,6.61 z M -304.32539,-112.41667 c -45.20419,-45.36656 -52.037,-52.74317 -51.327,-55.41202 0.45047,-1.69328 1.41903,-3.01075 2.15236,-2.92772 0.73333,0.0831 11.53892,10.16844 24.01241,22.41202 12.47348,12.24358 37.15412,36.47655 54.84584,53.85103 l 32.16676,31.589973 -4.0448,1.410027 c -2.22464,0.77552 -4.40812,1.410027 -4.85217,1.410027 -0.44406,0 -24.27308,-23.55 -52.9534,-52.333337 z"
         id="path1667"
         inkscape:connector-curvature="0" />
    </g>
  </g>
</svg>
